G04 #@! TF.GenerationSoftware,KiCad,Pcbnew,(6.0.7-1)-1*
G04 #@! TF.CreationDate,2022-09-24T13:58:25+09:00*
G04 #@! TF.ProjectId,EB-BM71,45422d42-4d37-4312-9e6b-696361645f70,V1.0*
G04 #@! TF.SameCoordinates,Original*
G04 #@! TF.FileFunction,Copper,L1,Top*
G04 #@! TF.FilePolarity,Positive*
%FSLAX46Y46*%
G04 Gerber Fmt 4.6, Leading zero omitted, Abs format (unit mm)*
G04 Created by KiCad (PCBNEW (6.0.7-1)-1) date 2022-09-24 13:58:25*
%MOMM*%
%LPD*%
G01*
G04 APERTURE LIST*
G04 Aperture macros list*
%AMRoundRect*
0 Rectangle with rounded corners*
0 $1 Rounding radius*
0 $2 $3 $4 $5 $6 $7 $8 $9 X,Y pos of 4 corners*
0 Add a 4 corners polygon primitive as box body*
4,1,4,$2,$3,$4,$5,$6,$7,$8,$9,$2,$3,0*
0 Add four circle primitives for the rounded corners*
1,1,$1+$1,$2,$3*
1,1,$1+$1,$4,$5*
1,1,$1+$1,$6,$7*
1,1,$1+$1,$8,$9*
0 Add four rect primitives between the rounded corners*
20,1,$1+$1,$2,$3,$4,$5,0*
20,1,$1+$1,$4,$5,$6,$7,0*
20,1,$1+$1,$6,$7,$8,$9,0*
20,1,$1+$1,$8,$9,$2,$3,0*%
G04 Aperture macros list end*
G04 #@! TA.AperFunction,ComponentPad*
%ADD10C,1.500000*%
G04 #@! TD*
G04 #@! TA.AperFunction,SMDPad,CuDef*
%ADD11RoundRect,0.200000X-0.250000X-0.200000X0.250000X-0.200000X0.250000X0.200000X-0.250000X0.200000X0*%
G04 #@! TD*
G04 #@! TA.AperFunction,SMDPad,CuDef*
%ADD12R,0.400000X1.400000*%
G04 #@! TD*
G04 #@! TA.AperFunction,ComponentPad*
%ADD13R,2.200000X3.000000*%
G04 #@! TD*
G04 #@! TA.AperFunction,SMDPad,CuDef*
%ADD14R,1.400000X0.150000*%
G04 #@! TD*
G04 #@! TA.AperFunction,SMDPad,CuDef*
%ADD15R,0.350000X0.150000*%
G04 #@! TD*
G04 #@! TA.AperFunction,SMDPad,CuDef*
%ADD16R,1.500000X2.500000*%
G04 #@! TD*
G04 #@! TA.AperFunction,ComponentPad*
%ADD17R,2.000000X0.800000*%
G04 #@! TD*
G04 #@! TA.AperFunction,ComponentPad*
%ADD18R,0.800000X2.000000*%
G04 #@! TD*
G04 #@! TA.AperFunction,SMDPad,CuDef*
%ADD19R,0.675000X0.200000*%
G04 #@! TD*
G04 #@! TA.AperFunction,SMDPad,CuDef*
%ADD20R,0.200000X0.700000*%
G04 #@! TD*
G04 #@! TA.AperFunction,SMDPad,CuDef*
%ADD21RoundRect,0.200000X0.250000X0.200000X-0.250000X0.200000X-0.250000X-0.200000X0.250000X-0.200000X0*%
G04 #@! TD*
G04 #@! TA.AperFunction,ComponentPad*
%ADD22R,1.400000X1.400000*%
G04 #@! TD*
G04 #@! TA.AperFunction,ComponentPad*
%ADD23C,1.400000*%
G04 #@! TD*
G04 #@! TA.AperFunction,ViaPad*
%ADD24C,0.609600*%
G04 #@! TD*
G04 #@! TA.AperFunction,Conductor*
%ADD25C,0.254000*%
G04 #@! TD*
G04 #@! TA.AperFunction,Conductor*
%ADD26C,0.152400*%
G04 #@! TD*
G04 #@! TA.AperFunction,Conductor*
%ADD27C,0.203200*%
G04 #@! TD*
G04 APERTURE END LIST*
D10*
X8890000Y0D03*
X8890000Y-2540000D03*
X8890000Y-5080000D03*
X8890000Y-7620000D03*
X8890000Y-10160000D03*
X8890000Y-12700000D03*
X8890000Y-15240000D03*
X8890000Y-17780000D03*
D11*
X3150000Y-21000000D03*
X4850000Y-21000000D03*
D12*
X-1600000Y-23000000D03*
X-800000Y-23000000D03*
X0Y-23000000D03*
X800000Y-23000000D03*
X1600000Y-23000000D03*
D13*
X4000000Y-25500000D03*
X-4000000Y-25500000D03*
D11*
X3850000Y-7500000D03*
X5550000Y-7500000D03*
X3850000Y-10700000D03*
X5550000Y-10700000D03*
X3850000Y-9100000D03*
X5550000Y-9100000D03*
X-4850000Y-21000000D03*
X-3150000Y-21000000D03*
X3850000Y-5900000D03*
X5550000Y-5900000D03*
D14*
X4800000Y-16750000D03*
X4800000Y-16250000D03*
X4800000Y-15750000D03*
X4800000Y-15250000D03*
X4800000Y-14750000D03*
X4800000Y-14250000D03*
X1200000Y-14250000D03*
X1200000Y-14750000D03*
X1200000Y-15250000D03*
X1200000Y-15750000D03*
X1200000Y-16250000D03*
X1200000Y-16750000D03*
D15*
X3925000Y-14750000D03*
D16*
X3000000Y-15500000D03*
D11*
X3850000Y-4300000D03*
X5550000Y-4300000D03*
D17*
X-4700000Y6200000D03*
X-4700000Y5000000D03*
X-4700000Y3800000D03*
X-4700000Y2600000D03*
X-4700000Y1400000D03*
D18*
X-3000000Y-700000D03*
X-1800000Y-700000D03*
X-600000Y-700000D03*
X600000Y-700000D03*
X1800000Y-700000D03*
X3000000Y-700000D03*
D17*
X4700000Y1400000D03*
X4700000Y2600000D03*
X4700000Y3800000D03*
X4700000Y5000000D03*
X4700000Y6200000D03*
D11*
X3150000Y-19400000D03*
X4850000Y-19400000D03*
D10*
X-8890000Y0D03*
X-8890000Y-2540000D03*
X-8890000Y-5080000D03*
X-8890000Y-7620000D03*
X-8890000Y-10160000D03*
X-8890000Y-12700000D03*
X-8890000Y-15240000D03*
X-8890000Y-17780000D03*
D19*
X-4287500Y-16275000D03*
X-4287500Y-15725000D03*
D20*
X-3500000Y-15350000D03*
D19*
X-2712500Y-15725000D03*
X-2712500Y-16275000D03*
D20*
X-3500000Y-16650000D03*
D21*
X-3150000Y-19400000D03*
X-4850000Y-19400000D03*
D22*
X-5850000Y-10600000D03*
D23*
X-5850000Y-8100000D03*
X-5850000Y-5600000D03*
X-2550000Y-10600000D03*
X-2550000Y-8100000D03*
X-2550000Y-5600000D03*
D24*
X4185900Y-13630600D03*
X-1600000Y-19400000D03*
X1400000Y-19400000D03*
X-8000000Y-22000000D03*
X-2130500Y-17330500D03*
X-8000000Y-25000000D03*
X8000000Y9000000D03*
X-3400000Y-14100000D03*
X8000000Y-22000000D03*
X-8000000Y9000000D03*
X-9000000Y4000000D03*
X8000000Y-28000000D03*
X8000000Y-25000000D03*
X-6000000Y-14000000D03*
X2527500Y-10368200D03*
X1650900Y-13400900D03*
X6207300Y-9900400D03*
X-8000000Y-28000000D03*
X-1289000Y-8201500D03*
X6686200Y3397900D03*
X5690200Y-18160800D03*
X5723000Y-253000D03*
X1273700Y-7260300D03*
X-3753500Y-11281400D03*
X2289800Y-11976000D03*
X3560500Y-11829600D03*
X169400Y-10079200D03*
X-1400000Y-16000000D03*
X6100000Y-17400000D03*
D25*
X4195500Y-11566574D02*
X4518096Y-11566574D01*
X6307000Y-13355478D02*
X6307000Y-15000000D01*
D26*
X4800000Y-15250000D02*
X5850000Y-15250000D01*
D25*
X4195500Y-11566574D02*
X4195500Y-13621000D01*
X4518096Y-11566574D02*
X6307000Y-13355478D01*
X-4007900Y-20257900D02*
X-3150000Y-19400000D01*
X3850000Y-11221074D02*
X4195500Y-11566574D01*
X-7330000Y-1560000D02*
X-7330000Y-19744100D01*
X3850000Y-9100000D02*
X3850000Y-7500000D01*
X-3150000Y-19400000D02*
X-1600000Y-19400000D01*
X3850000Y-10700000D02*
X3850000Y-11221074D01*
X-4007900Y-21397800D02*
X-4007900Y-20257900D01*
X-4357000Y-21746900D02*
X-4007900Y-21397800D01*
X-7330000Y-19744100D02*
X-5327200Y-21746900D01*
X1400000Y-19400000D02*
X3150000Y-19400000D01*
X-5327200Y-21746900D02*
X-4357000Y-21746900D01*
X3850000Y-10700000D02*
X3850000Y-9100000D01*
X6057000Y-15250000D02*
X5850000Y-15250000D01*
X4195500Y-13621000D02*
X4185900Y-13630600D01*
X6307000Y-15000000D02*
X6057000Y-15250000D01*
X-8890000Y0D02*
X-7330000Y-1560000D01*
X-7795500Y-16685500D02*
X-8890000Y-17780000D01*
X1600000Y-23000000D02*
X1600000Y-21400000D01*
D26*
X-3500000Y-16650000D02*
X-3500000Y-17330500D01*
X-3500000Y-14200000D02*
X-3400000Y-14100000D01*
D25*
X2000000Y-21000000D02*
X3150000Y-21000000D01*
X-7795500Y-6174500D02*
X-7795500Y-16685500D01*
X1600000Y-23000000D02*
X1600000Y-23515200D01*
X3937700Y-18522200D02*
X2746000Y-17330500D01*
D26*
X4800000Y-14750000D02*
X5850000Y-14750000D01*
D25*
X3150000Y-21000000D02*
X3937700Y-20212300D01*
X3937700Y-20212300D02*
X3937700Y-18522200D01*
X1650900Y-11244800D02*
X1650900Y-13400900D01*
X5550000Y-7500000D02*
X5550000Y-9100000D01*
X-8890000Y-5080000D02*
X-7795500Y-6174500D01*
X5550000Y-9100000D02*
X5550000Y-9243100D01*
D26*
X-3500000Y-15350000D02*
X-3500000Y-14200000D01*
D25*
X2527500Y-10368200D02*
X1650900Y-11244800D01*
X5550000Y-9243100D02*
X6207300Y-9900400D01*
X2746000Y-17330500D02*
X-2130500Y-17330500D01*
X1600000Y-21400000D02*
X2000000Y-21000000D01*
X5550000Y-5900000D02*
X5550000Y-4300000D01*
X5550000Y-5900000D02*
X5550000Y-7500000D01*
X-2130500Y-17330500D02*
X-3500000Y-17330500D01*
D26*
X4800000Y-16250000D02*
X5850000Y-16250000D01*
X6000000Y-16000000D02*
X6000000Y-15900000D01*
D25*
X4100000Y-6700000D02*
X4400000Y-6700000D01*
D26*
X1200000Y-15250000D02*
X109700Y-15250000D01*
D25*
X6764200Y-15235800D02*
X6000000Y-16000000D01*
X4707900Y-7007900D02*
X4707900Y-11109800D01*
X6381200Y-1768800D02*
X6381200Y49800D01*
X4400000Y-6700000D02*
X4707900Y-7007900D01*
D26*
X6000000Y-16100000D02*
X6000000Y-16000000D01*
X6000000Y-15900000D02*
X5850000Y-15750000D01*
D25*
X4707900Y-11109800D02*
X6764200Y-13166100D01*
X3600000Y-6700000D02*
X3850000Y-6450000D01*
X3850000Y-4300000D02*
X6381200Y-1768800D01*
X-517900Y-9831900D02*
X708400Y-8605600D01*
X708400Y-8605600D02*
X1294400Y-8605600D01*
X3850000Y-5900000D02*
X3850000Y-4300000D01*
X109700Y-15250000D02*
X-517900Y-14622400D01*
X1294400Y-8605600D02*
X3200000Y-6700000D01*
X6381200Y49800D02*
X6030500Y400500D01*
X6030500Y400500D02*
X6030500Y3800000D01*
D26*
X109700Y-15250000D02*
X50000Y-15250000D01*
X5850000Y-16250000D02*
X6000000Y-16100000D01*
D25*
X3200000Y-6700000D02*
X3600000Y-6700000D01*
X6764200Y-13166100D02*
X6764200Y-15235800D01*
X3850000Y-6450000D02*
X4100000Y-6700000D01*
D26*
X5850000Y-15750000D02*
X4800000Y-15750000D01*
D25*
X-517900Y-14622400D02*
X-517900Y-9831900D01*
X3850000Y-6450000D02*
X3850000Y-5900000D01*
X4700000Y3800000D02*
X6030500Y3800000D01*
X4850000Y-19400000D02*
X4850000Y-21000000D01*
X-4850000Y-19400000D02*
X-4850000Y-21000000D01*
X-1600000Y-21400000D02*
X-2000000Y-21000000D01*
X-1600000Y-23000000D02*
X-1600000Y-21400000D01*
X-2000000Y-21000000D02*
X-3150000Y-21000000D01*
D26*
X-4287500Y-15725000D02*
X-5325000Y-15725000D01*
D27*
X-5900000Y-16300000D02*
X-5325000Y-15725000D01*
X-5200000Y-18400000D02*
X-5900000Y-17700000D01*
X-800000Y-19337900D02*
X-1737900Y-18400000D01*
X-5900000Y-17700000D02*
X-5900000Y-16300000D01*
X-800000Y-23000000D02*
X-800000Y-19337900D01*
X-1737900Y-18400000D02*
X-5200000Y-18400000D01*
X-5493600Y-16693600D02*
X-5075000Y-16275000D01*
D26*
X-4287500Y-16275000D02*
X-5075000Y-16275000D01*
D27*
X-5006400Y-17993600D02*
X-5493600Y-17506400D01*
X-1569600Y-17993600D02*
X-5006400Y-17993600D01*
X0Y-23000000D02*
X0Y-19563200D01*
X0Y-19563200D02*
X-1569600Y-17993600D01*
X-5493600Y-17506400D02*
X-5493600Y-16693600D01*
D25*
X1800000Y-5112500D02*
X-1289000Y-8201500D01*
X1800000Y-700000D02*
X1800000Y-5112500D01*
X5550000Y-10700000D02*
X6716500Y-10700000D01*
X6873300Y-10543200D02*
X6873300Y3210800D01*
X6270600Y-18160800D02*
X5690200Y-18160800D01*
X6873300Y3210800D02*
X6686200Y3397900D01*
X7221800Y-11205300D02*
X7221800Y-17209600D01*
X6716500Y-10700000D02*
X7221800Y-11205300D01*
X7221800Y-17209600D02*
X6270600Y-18160800D01*
X6716500Y-10700000D02*
X6873300Y-10543200D01*
X3000000Y-700000D02*
X5276000Y-700000D01*
X5276000Y-700000D02*
X5723000Y-253000D01*
X7788500Y5047200D02*
X7788500Y-6518500D01*
X-5644100Y7237600D02*
X5598100Y7237600D01*
X5598100Y7237600D02*
X7788500Y5047200D01*
X7788500Y-6518500D02*
X8890000Y-7620000D01*
X-6030500Y2600000D02*
X-6030500Y6851200D01*
X-4700000Y2600000D02*
X-6030500Y2600000D01*
X-6030500Y6851200D02*
X-5644100Y7237600D01*
X-620800Y-9154800D02*
X-3001500Y-9154800D01*
X1273700Y-7260300D02*
X-620800Y-9154800D01*
X-3000000Y-700000D02*
X-3000000Y-2030500D01*
X-3587100Y-8569200D02*
X-3587100Y-2617600D01*
X-3001500Y-9154800D02*
X-3587100Y-8569200D01*
X-3587100Y-2617600D02*
X-3000000Y-2030500D01*
X3560500Y-11829600D02*
X2436200Y-11829600D01*
X-4700000Y-10334900D02*
X-3753500Y-11281400D01*
X2436200Y-11829600D02*
X2289800Y-11976000D01*
X-4700000Y1400000D02*
X-4700000Y-10334900D01*
X7330900Y-8458700D02*
X7679400Y-8807200D01*
X4700000Y5000000D02*
X6030500Y5000000D01*
X7330900Y3699600D02*
X7330900Y-8458700D01*
X6030500Y5000000D02*
X7330900Y3699600D01*
X7679400Y-8807200D02*
X7679400Y-14029400D01*
X7679400Y-14029400D02*
X8890000Y-15240000D01*
D26*
X1200000Y-14250000D02*
X169400Y-14250000D01*
D25*
X169400Y-14250000D02*
X169400Y-10079200D01*
X-50200Y-15750000D02*
X-2550000Y-13250200D01*
X50000Y-15750000D02*
X-50200Y-15750000D01*
X-2550000Y-13250200D02*
X-2550000Y-10600000D01*
D26*
X1200000Y-15750000D02*
X50000Y-15750000D01*
D25*
X-600000Y-2030500D02*
X-600000Y-6150000D01*
X-600000Y-700000D02*
X-600000Y-2030500D01*
X-600000Y-6150000D02*
X-2550000Y-8100000D01*
D26*
X-2712500Y-15725000D02*
X-1675000Y-15725000D01*
X6100000Y-17400000D02*
X6100000Y-17000000D01*
X6100000Y-17000000D02*
X5850000Y-16750000D01*
X-1675000Y-15725000D02*
X-1400000Y-16000000D01*
X5850000Y-16750000D02*
X4800000Y-16750000D01*
X-2225000Y-16275000D02*
X-2712500Y-16275000D01*
X-1750000Y-16750000D02*
X-2225000Y-16275000D01*
X1200000Y-16750000D02*
X-1750000Y-16750000D01*
G04 #@! TA.AperFunction,Conductor*
G36*
X-9782988Y-16127253D02*
G01*
X-9776405Y-16133382D01*
X-9702038Y-16207749D01*
X-9697529Y-16210906D01*
X-9697527Y-16210908D01*
X-9680035Y-16223156D01*
X-9521654Y-16334056D01*
X-9516672Y-16336379D01*
X-9516667Y-16336382D01*
X-9388641Y-16396081D01*
X-9335356Y-16442998D01*
X-9315895Y-16511276D01*
X-9336437Y-16579236D01*
X-9388641Y-16624471D01*
X-9516417Y-16684054D01*
X-9525907Y-16689534D01*
X-9567149Y-16718411D01*
X-9575523Y-16728886D01*
X-9568455Y-16742333D01*
X-8619884Y-17690905D01*
X-8585859Y-17753217D01*
X-8590924Y-17824033D01*
X-8619885Y-17869095D01*
X-8890000Y-18139210D01*
X-9569176Y-18818387D01*
X-9575606Y-18830162D01*
X-9566310Y-18842176D01*
X-9525912Y-18870464D01*
X-9516416Y-18875947D01*
X-9326887Y-18964326D01*
X-9316595Y-18968072D01*
X-9114599Y-19022196D01*
X-9103804Y-19024099D01*
X-8895475Y-19042326D01*
X-8884525Y-19042326D01*
X-8676196Y-19024099D01*
X-8665401Y-19022196D01*
X-8463405Y-18968072D01*
X-8453113Y-18964326D01*
X-8263584Y-18875947D01*
X-8254088Y-18870464D01*
X-8163771Y-18807223D01*
X-8096497Y-18784535D01*
X-8027636Y-18801820D01*
X-7979052Y-18853590D01*
X-7965500Y-18910436D01*
X-7965500Y-19665080D01*
X-7966030Y-19676314D01*
X-7967708Y-19683819D01*
X-7967459Y-19691738D01*
X-7965562Y-19752112D01*
X-7965500Y-19756069D01*
X-7965500Y-19784083D01*
X-7965004Y-19788008D01*
X-7965004Y-19788009D01*
X-7964992Y-19788104D01*
X-7964059Y-19799949D01*
X-7962665Y-19844305D01*
X-7960453Y-19851917D01*
X-7956987Y-19863848D01*
X-7952977Y-19883212D01*
X-7951652Y-19893699D01*
X-7950427Y-19903399D01*
X-7947511Y-19910763D01*
X-7947510Y-19910768D01*
X-7934093Y-19944656D01*
X-7930248Y-19955885D01*
X-7917869Y-19998493D01*
X-7913831Y-20005320D01*
X-7913830Y-20005323D01*
X-7907512Y-20016006D01*
X-7898812Y-20033764D01*
X-7894239Y-20045315D01*
X-7894235Y-20045321D01*
X-7891319Y-20052688D01*
X-7886661Y-20059099D01*
X-7886660Y-20059101D01*
X-7865236Y-20088588D01*
X-7858719Y-20098510D01*
X-7840174Y-20129868D01*
X-7840171Y-20129872D01*
X-7836134Y-20136698D01*
X-7821750Y-20151082D01*
X-7808909Y-20166116D01*
X-7803161Y-20174028D01*
X-7796942Y-20182587D01*
X-7790834Y-20187640D01*
X-7762745Y-20210877D01*
X-7753965Y-20218867D01*
X-5832450Y-22140383D01*
X-5824874Y-22148709D01*
X-5820753Y-22155203D01*
X-5814978Y-22160626D01*
X-5770935Y-22201985D01*
X-5768093Y-22204740D01*
X-5748294Y-22224539D01*
X-5745169Y-22226963D01*
X-5745160Y-22226971D01*
X-5745074Y-22227037D01*
X-5736049Y-22234745D01*
X-5703706Y-22265117D01*
X-5696762Y-22268935D01*
X-5696760Y-22268936D01*
X-5685871Y-22274922D01*
X-5669353Y-22285773D01*
X-5653267Y-22298250D01*
X-5612534Y-22315876D01*
X-5601886Y-22321093D01*
X-5590258Y-22327485D01*
X-5563003Y-22342469D01*
X-5555328Y-22344440D01*
X-5555322Y-22344442D01*
X-5543289Y-22347531D01*
X-5524587Y-22353934D01*
X-5505908Y-22362017D01*
X-5472382Y-22367327D01*
X-5462073Y-22368960D01*
X-5450460Y-22371365D01*
X-5407482Y-22382400D01*
X-5387135Y-22382400D01*
X-5367423Y-22383951D01*
X-5347321Y-22387135D01*
X-5339429Y-22386389D01*
X-5303144Y-22382959D01*
X-5291286Y-22382400D01*
X-4436020Y-22382400D01*
X-4424786Y-22382930D01*
X-4417281Y-22384608D01*
X-4348988Y-22382462D01*
X-4345031Y-22382400D01*
X-4317017Y-22382400D01*
X-4313092Y-22381904D01*
X-4313091Y-22381904D01*
X-4312996Y-22381892D01*
X-4301151Y-22380959D01*
X-4271330Y-22380022D01*
X-4264718Y-22379814D01*
X-4264717Y-22379814D01*
X-4256795Y-22379565D01*
X-4237251Y-22373887D01*
X-4217888Y-22369877D01*
X-4205560Y-22368320D01*
X-4205558Y-22368320D01*
X-4197701Y-22367327D01*
X-4190337Y-22364411D01*
X-4190332Y-22364410D01*
X-4156444Y-22350993D01*
X-4145215Y-22347148D01*
X-4128535Y-22342302D01*
X-4102607Y-22334769D01*
X-4095780Y-22330731D01*
X-4095777Y-22330730D01*
X-4085094Y-22324412D01*
X-4067336Y-22315712D01*
X-4055785Y-22311139D01*
X-4055779Y-22311135D01*
X-4048412Y-22308219D01*
X-4039023Y-22301398D01*
X-4012512Y-22282136D01*
X-4002590Y-22275619D01*
X-3971232Y-22257074D01*
X-3971228Y-22257071D01*
X-3964402Y-22253034D01*
X-3950018Y-22238650D01*
X-3934984Y-22225809D01*
X-3924927Y-22218502D01*
X-3918513Y-22213842D01*
X-3890228Y-22179651D01*
X-3882238Y-22170870D01*
X-3646357Y-21934990D01*
X-3584045Y-21900965D01*
X-3533900Y-21900550D01*
X-3530062Y-21901753D01*
X-3523410Y-21902364D01*
X-3523406Y-21902365D01*
X-3493387Y-21905123D01*
X-3456635Y-21908500D01*
X-3453737Y-21908500D01*
X-3149205Y-21908499D01*
X-2843366Y-21908499D01*
X-2840508Y-21908236D01*
X-2840499Y-21908236D01*
X-2804996Y-21904974D01*
X-2769938Y-21901753D01*
X-2754063Y-21896778D01*
X-2613550Y-21852744D01*
X-2613548Y-21852743D01*
X-2606301Y-21850472D01*
X-2459619Y-21761639D01*
X-2450595Y-21752615D01*
X-2388283Y-21718589D01*
X-2317468Y-21723654D01*
X-2260632Y-21766201D01*
X-2235821Y-21832721D01*
X-2235500Y-21841710D01*
X-2235500Y-21996103D01*
X-2249881Y-22052316D01*
X-2250615Y-22053295D01*
X-2253766Y-22061701D01*
X-2253768Y-22061704D01*
X-2283263Y-22140383D01*
X-2301745Y-22189684D01*
X-2308500Y-22251866D01*
X-2308500Y-23563893D01*
X-2328502Y-23632014D01*
X-2382158Y-23678507D01*
X-2452432Y-23688611D01*
X-2517012Y-23659117D01*
X-2525136Y-23650397D01*
X-2525365Y-23650626D01*
X-2544276Y-23631715D01*
X-2646351Y-23555214D01*
X-2661946Y-23546676D01*
X-2782394Y-23501522D01*
X-2797649Y-23497895D01*
X-2848514Y-23492369D01*
X-2855328Y-23492000D01*
X-3727885Y-23492000D01*
X-3743124Y-23496475D01*
X-3744329Y-23497865D01*
X-3746000Y-23505548D01*
X-3746000Y-25227885D01*
X-3741525Y-25243124D01*
X-3740135Y-25244329D01*
X-3732452Y-25246000D01*
X-2410116Y-25246000D01*
X-2394877Y-25241525D01*
X-2393672Y-25240135D01*
X-2392001Y-25232452D01*
X-2392001Y-24136272D01*
X-2371999Y-24068151D01*
X-2318343Y-24021658D01*
X-2248069Y-24011554D01*
X-2183489Y-24041048D01*
X-2175203Y-24049942D01*
X-2174992Y-24049731D01*
X-2168642Y-24056081D01*
X-2163261Y-24063261D01*
X-2046705Y-24150615D01*
X-1910316Y-24201745D01*
X-1848134Y-24208500D01*
X-1351866Y-24208500D01*
X-1347254Y-24207999D01*
X-1297534Y-24202598D01*
X-1297532Y-24202598D01*
X-1289684Y-24201745D01*
X-1282291Y-24198973D01*
X-1282289Y-24198973D01*
X-1244229Y-24184705D01*
X-1173422Y-24179522D01*
X-1155771Y-24184705D01*
X-1117711Y-24198973D01*
X-1117709Y-24198973D01*
X-1110316Y-24201745D01*
X-1102468Y-24202598D01*
X-1102466Y-24202598D01*
X-1052746Y-24207999D01*
X-1048134Y-24208500D01*
X-551866Y-24208500D01*
X-547254Y-24207999D01*
X-497534Y-24202598D01*
X-497532Y-24202598D01*
X-489684Y-24201745D01*
X-482291Y-24198973D01*
X-482289Y-24198973D01*
X-444229Y-24184705D01*
X-373422Y-24179522D01*
X-355771Y-24184705D01*
X-317711Y-24198973D01*
X-317709Y-24198973D01*
X-310316Y-24201745D01*
X-302468Y-24202598D01*
X-302466Y-24202598D01*
X-252746Y-24207999D01*
X-248134Y-24208500D01*
X248134Y-24208500D01*
X252746Y-24207999D01*
X302466Y-24202598D01*
X302468Y-24202598D01*
X310316Y-24201745D01*
X317709Y-24198973D01*
X317711Y-24198973D01*
X355771Y-24184705D01*
X426578Y-24179522D01*
X444229Y-24184705D01*
X482289Y-24198973D01*
X482291Y-24198973D01*
X489684Y-24201745D01*
X497532Y-24202598D01*
X497534Y-24202598D01*
X547254Y-24207999D01*
X551866Y-24208500D01*
X1048134Y-24208500D01*
X1110316Y-24201745D01*
X1156482Y-24184438D01*
X1227289Y-24179255D01*
X1244942Y-24184438D01*
X1282394Y-24198478D01*
X1297649Y-24202105D01*
X1348514Y-24207631D01*
X1355328Y-24208000D01*
X1381885Y-24208000D01*
X1391748Y-24205104D01*
X1427246Y-24200000D01*
X1763228Y-24200000D01*
X1790010Y-24202879D01*
X1813547Y-24207999D01*
X1844669Y-24207999D01*
X1851490Y-24207629D01*
X1902352Y-24202105D01*
X1917604Y-24198479D01*
X2038054Y-24153324D01*
X2053649Y-24144786D01*
X2155724Y-24068285D01*
X2174635Y-24049374D01*
X2176596Y-24051335D01*
X2222030Y-24017361D01*
X2292849Y-24012334D01*
X2355143Y-24046392D01*
X2389135Y-24108722D01*
X2392000Y-24135440D01*
X2392000Y-25227885D01*
X2396475Y-25243124D01*
X2397865Y-25244329D01*
X2405548Y-25246000D01*
X3727885Y-25246000D01*
X3743124Y-25241525D01*
X3744329Y-25240135D01*
X3746000Y-25232452D01*
X3746000Y-25227885D01*
X4254000Y-25227885D01*
X4258475Y-25243124D01*
X4259865Y-25244329D01*
X4267548Y-25246000D01*
X5589884Y-25246000D01*
X5605123Y-25241525D01*
X5606328Y-25240135D01*
X5607999Y-25232452D01*
X5607999Y-23955331D01*
X5607629Y-23948510D01*
X5602105Y-23897648D01*
X5598479Y-23882396D01*
X5553324Y-23761946D01*
X5544786Y-23746351D01*
X5468285Y-23644276D01*
X5455724Y-23631715D01*
X5353649Y-23555214D01*
X5338054Y-23546676D01*
X5217606Y-23501522D01*
X5202351Y-23497895D01*
X5151486Y-23492369D01*
X5144672Y-23492000D01*
X4272115Y-23492000D01*
X4256876Y-23496475D01*
X4255671Y-23497865D01*
X4254000Y-23505548D01*
X4254000Y-25227885D01*
X3746000Y-25227885D01*
X3746000Y-23510116D01*
X3741525Y-23494877D01*
X3740135Y-23493672D01*
X3732452Y-23492001D01*
X2855331Y-23492001D01*
X2848510Y-23492371D01*
X2797648Y-23497895D01*
X2782396Y-23501521D01*
X2661946Y-23546676D01*
X2646351Y-23555214D01*
X2544276Y-23631715D01*
X2525365Y-23650626D01*
X2523404Y-23648665D01*
X2477970Y-23682639D01*
X2407151Y-23687666D01*
X2344857Y-23653608D01*
X2310865Y-23591278D01*
X2308000Y-23564560D01*
X2308000Y-23218115D01*
X2305104Y-23208252D01*
X2300000Y-23172754D01*
X2300000Y-22836772D01*
X2302879Y-22809990D01*
X2307999Y-22786453D01*
X2307999Y-22255331D01*
X2307629Y-22248510D01*
X2302105Y-22197648D01*
X2298479Y-22182396D01*
X2253324Y-22061946D01*
X2244786Y-22046351D01*
X2168285Y-21944276D01*
X2155724Y-21931715D01*
X2053649Y-21855214D01*
X2038054Y-21846676D01*
X1917606Y-21801522D01*
X1902351Y-21797895D01*
X1851486Y-21792369D01*
X1844672Y-21792000D01*
X1818115Y-21792000D01*
X1808252Y-21794896D01*
X1772754Y-21800000D01*
X1436772Y-21800000D01*
X1409990Y-21797121D01*
X1386453Y-21792001D01*
X1355331Y-21792001D01*
X1348510Y-21792371D01*
X1297648Y-21797895D01*
X1282396Y-21801521D01*
X1244942Y-21815562D01*
X1174135Y-21820745D01*
X1156482Y-21815562D01*
X1110316Y-21798255D01*
X1048134Y-21791500D01*
X736100Y-21791500D01*
X667979Y-21771498D01*
X621486Y-21717842D01*
X610100Y-21665500D01*
X610100Y-21264294D01*
X2192709Y-21264294D01*
X2198132Y-21323315D01*
X2200743Y-21336351D01*
X2247715Y-21486243D01*
X2253921Y-21499988D01*
X2334824Y-21633574D01*
X2344131Y-21645443D01*
X2454557Y-21755869D01*
X2466426Y-21765176D01*
X2600012Y-21846079D01*
X2613757Y-21852285D01*
X2763644Y-21899256D01*
X2776694Y-21901869D01*
X2840521Y-21907734D01*
X2846309Y-21908000D01*
X2877885Y-21908000D01*
X2893124Y-21903525D01*
X2894329Y-21902135D01*
X2896000Y-21894452D01*
X2896000Y-21272115D01*
X2891525Y-21256876D01*
X2890135Y-21255671D01*
X2882452Y-21254000D01*
X2210116Y-21254000D01*
X2194877Y-21258475D01*
X2193672Y-21259865D01*
X2192709Y-21264294D01*
X610100Y-21264294D01*
X610100Y-20064752D01*
X630102Y-19996631D01*
X683758Y-19950138D01*
X754032Y-19940034D01*
X818612Y-19969528D01*
X826737Y-19977225D01*
X878303Y-20030623D01*
X884195Y-20034478D01*
X884199Y-20034482D01*
X1000986Y-20110905D01*
X1030981Y-20130533D01*
X1037585Y-20132989D01*
X1037587Y-20132990D01*
X1086235Y-20151082D01*
X1202000Y-20194135D01*
X1382860Y-20218267D01*
X1389871Y-20217629D01*
X1389875Y-20217629D01*
X1529580Y-20204914D01*
X1564571Y-20201729D01*
X1571273Y-20199551D01*
X1571275Y-20199551D01*
X1731405Y-20147522D01*
X1731408Y-20147521D01*
X1738104Y-20145345D01*
X1764067Y-20129868D01*
X1892561Y-20053271D01*
X1957078Y-20035500D01*
X2281290Y-20035500D01*
X2349411Y-20055502D01*
X2370385Y-20072405D01*
X2409239Y-20111259D01*
X2443265Y-20173571D01*
X2438200Y-20244386D01*
X2409239Y-20289449D01*
X2344131Y-20354557D01*
X2334824Y-20366426D01*
X2253921Y-20500012D01*
X2247715Y-20513757D01*
X2200744Y-20663644D01*
X2198131Y-20676694D01*
X2193087Y-20731586D01*
X2196475Y-20743124D01*
X2197865Y-20744329D01*
X2205548Y-20746000D01*
X3278000Y-20746000D01*
X3346121Y-20766002D01*
X3392614Y-20819658D01*
X3404000Y-20872000D01*
X3404000Y-21889884D01*
X3408475Y-21905123D01*
X3409865Y-21906328D01*
X3417548Y-21907999D01*
X3453705Y-21907999D01*
X3459454Y-21907736D01*
X3523315Y-21901868D01*
X3536351Y-21899257D01*
X3686243Y-21852285D01*
X3699988Y-21846079D01*
X3833574Y-21765176D01*
X3845443Y-21755869D01*
X3910551Y-21690761D01*
X3972863Y-21656735D01*
X4043678Y-21661800D01*
X4088741Y-21690761D01*
X4159619Y-21761639D01*
X4306301Y-21850472D01*
X4313548Y-21852743D01*
X4313550Y-21852744D01*
X4379836Y-21873517D01*
X4469938Y-21901753D01*
X4543365Y-21908500D01*
X4546263Y-21908500D01*
X4850795Y-21908499D01*
X5156634Y-21908499D01*
X5159492Y-21908236D01*
X5159501Y-21908236D01*
X5195004Y-21904974D01*
X5230062Y-21901753D01*
X5245937Y-21896778D01*
X5386450Y-21852744D01*
X5386452Y-21852743D01*
X5393699Y-21850472D01*
X5540381Y-21761639D01*
X5661639Y-21640381D01*
X5750472Y-21493699D01*
X5801753Y-21330062D01*
X5808500Y-21256635D01*
X5808499Y-20743366D01*
X5801753Y-20669938D01*
X5755505Y-20522361D01*
X5752744Y-20513550D01*
X5752743Y-20513548D01*
X5750472Y-20506301D01*
X5661639Y-20359619D01*
X5591115Y-20289095D01*
X5557089Y-20226783D01*
X5562154Y-20155968D01*
X5591115Y-20110905D01*
X5661639Y-20040381D01*
X5750472Y-19893699D01*
X5753759Y-19883212D01*
X5793603Y-19756069D01*
X5801753Y-19730062D01*
X5808500Y-19656635D01*
X5808499Y-19143366D01*
X5808234Y-19140474D01*
X5805180Y-19107241D01*
X5802918Y-19082620D01*
X5816604Y-19012956D01*
X5865781Y-18961749D01*
X5889454Y-18951260D01*
X6021605Y-18908322D01*
X6021608Y-18908321D01*
X6028304Y-18906145D01*
X6038938Y-18899806D01*
X6180797Y-18815242D01*
X6241356Y-18797533D01*
X6275126Y-18796472D01*
X6278613Y-18796362D01*
X6282569Y-18796300D01*
X6310583Y-18796300D01*
X6314508Y-18795804D01*
X6314509Y-18795804D01*
X6314604Y-18795792D01*
X6326449Y-18794859D01*
X6356270Y-18793922D01*
X6362882Y-18793714D01*
X6362883Y-18793714D01*
X6370805Y-18793465D01*
X6390349Y-18787787D01*
X6409712Y-18783777D01*
X6422040Y-18782220D01*
X6422042Y-18782220D01*
X6429899Y-18781227D01*
X6437263Y-18778311D01*
X6437268Y-18778310D01*
X6471156Y-18764893D01*
X6482385Y-18761048D01*
X6499065Y-18756202D01*
X6524993Y-18748669D01*
X6531820Y-18744631D01*
X6531823Y-18744630D01*
X6542506Y-18738312D01*
X6560264Y-18729612D01*
X6571815Y-18725039D01*
X6571821Y-18725035D01*
X6579188Y-18722119D01*
X6615091Y-18696034D01*
X6625010Y-18689519D01*
X6656368Y-18670974D01*
X6656372Y-18670971D01*
X6663198Y-18666934D01*
X6677582Y-18652550D01*
X6692616Y-18639709D01*
X6702673Y-18632402D01*
X6709087Y-18627742D01*
X6737373Y-18593550D01*
X6745363Y-18584769D01*
X7429468Y-17900665D01*
X7491780Y-17866640D01*
X7562596Y-17871705D01*
X7619431Y-17914252D01*
X7644084Y-17978781D01*
X7645885Y-17999371D01*
X7702880Y-18212076D01*
X7705205Y-18217061D01*
X7793618Y-18406666D01*
X7793621Y-18406671D01*
X7795944Y-18411653D01*
X7799100Y-18416160D01*
X7799101Y-18416162D01*
X7857978Y-18500246D01*
X7922251Y-18592038D01*
X8077962Y-18747749D01*
X8082471Y-18750906D01*
X8082473Y-18750908D01*
X8131190Y-18785020D01*
X8258346Y-18874056D01*
X8457924Y-18967120D01*
X8670629Y-19024115D01*
X8890000Y-19043307D01*
X9109371Y-19024115D01*
X9322076Y-18967120D01*
X9521654Y-18874056D01*
X9648810Y-18785020D01*
X9697527Y-18750908D01*
X9697529Y-18750906D01*
X9702038Y-18747749D01*
X9776405Y-18673382D01*
X9838717Y-18639356D01*
X9909532Y-18644421D01*
X9966368Y-18686968D01*
X9991179Y-18753488D01*
X9991500Y-18762477D01*
X9991500Y-29365500D01*
X9971498Y-29433621D01*
X9917842Y-29480114D01*
X9865500Y-29491500D01*
X-9865500Y-29491500D01*
X-9933621Y-29471498D01*
X-9980114Y-29417842D01*
X-9991500Y-29365500D01*
X-9991500Y-27044669D01*
X-5607999Y-27044669D01*
X-5607629Y-27051490D01*
X-5602105Y-27102352D01*
X-5598479Y-27117604D01*
X-5553324Y-27238054D01*
X-5544786Y-27253649D01*
X-5468285Y-27355724D01*
X-5455724Y-27368285D01*
X-5353649Y-27444786D01*
X-5338054Y-27453324D01*
X-5217606Y-27498478D01*
X-5202351Y-27502105D01*
X-5151486Y-27507631D01*
X-5144672Y-27508000D01*
X-4272115Y-27508000D01*
X-4256876Y-27503525D01*
X-4255671Y-27502135D01*
X-4254000Y-27494452D01*
X-4254000Y-27489884D01*
X-3746000Y-27489884D01*
X-3741525Y-27505123D01*
X-3740135Y-27506328D01*
X-3732452Y-27507999D01*
X-2855331Y-27507999D01*
X-2848510Y-27507629D01*
X-2797648Y-27502105D01*
X-2782396Y-27498479D01*
X-2661946Y-27453324D01*
X-2646351Y-27444786D01*
X-2544276Y-27368285D01*
X-2531715Y-27355724D01*
X-2455214Y-27253649D01*
X-2446676Y-27238054D01*
X-2401522Y-27117606D01*
X-2397895Y-27102351D01*
X-2392369Y-27051486D01*
X-2392000Y-27044672D01*
X-2392000Y-27044669D01*
X2392001Y-27044669D01*
X2392371Y-27051490D01*
X2397895Y-27102352D01*
X2401521Y-27117604D01*
X2446676Y-27238054D01*
X2455214Y-27253649D01*
X2531715Y-27355724D01*
X2544276Y-27368285D01*
X2646351Y-27444786D01*
X2661946Y-27453324D01*
X2782394Y-27498478D01*
X2797649Y-27502105D01*
X2848514Y-27507631D01*
X2855328Y-27508000D01*
X3727885Y-27508000D01*
X3743124Y-27503525D01*
X3744329Y-27502135D01*
X3746000Y-27494452D01*
X3746000Y-27489884D01*
X4254000Y-27489884D01*
X4258475Y-27505123D01*
X4259865Y-27506328D01*
X4267548Y-27507999D01*
X5144669Y-27507999D01*
X5151490Y-27507629D01*
X5202352Y-27502105D01*
X5217604Y-27498479D01*
X5338054Y-27453324D01*
X5353649Y-27444786D01*
X5455724Y-27368285D01*
X5468285Y-27355724D01*
X5544786Y-27253649D01*
X5553324Y-27238054D01*
X5598478Y-27117606D01*
X5602105Y-27102351D01*
X5607631Y-27051486D01*
X5608000Y-27044672D01*
X5608000Y-25772115D01*
X5603525Y-25756876D01*
X5602135Y-25755671D01*
X5594452Y-25754000D01*
X4272115Y-25754000D01*
X4256876Y-25758475D01*
X4255671Y-25759865D01*
X4254000Y-25767548D01*
X4254000Y-27489884D01*
X3746000Y-27489884D01*
X3746000Y-25772115D01*
X3741525Y-25756876D01*
X3740135Y-25755671D01*
X3732452Y-25754000D01*
X2410116Y-25754000D01*
X2394877Y-25758475D01*
X2393672Y-25759865D01*
X2392001Y-25767548D01*
X2392001Y-27044669D01*
X-2392000Y-27044669D01*
X-2392000Y-25772115D01*
X-2396475Y-25756876D01*
X-2397865Y-25755671D01*
X-2405548Y-25754000D01*
X-3727885Y-25754000D01*
X-3743124Y-25758475D01*
X-3744329Y-25759865D01*
X-3746000Y-25767548D01*
X-3746000Y-27489884D01*
X-4254000Y-27489884D01*
X-4254000Y-25772115D01*
X-4258475Y-25756876D01*
X-4259865Y-25755671D01*
X-4267548Y-25754000D01*
X-5589884Y-25754000D01*
X-5605123Y-25758475D01*
X-5606328Y-25759865D01*
X-5607999Y-25767548D01*
X-5607999Y-27044669D01*
X-9991500Y-27044669D01*
X-9991500Y-25227885D01*
X-5608000Y-25227885D01*
X-5603525Y-25243124D01*
X-5602135Y-25244329D01*
X-5594452Y-25246000D01*
X-4272115Y-25246000D01*
X-4256876Y-25241525D01*
X-4255671Y-25240135D01*
X-4254000Y-25232452D01*
X-4254000Y-23510116D01*
X-4258475Y-23494877D01*
X-4259865Y-23493672D01*
X-4267548Y-23492001D01*
X-5144669Y-23492001D01*
X-5151490Y-23492371D01*
X-5202352Y-23497895D01*
X-5217604Y-23501521D01*
X-5338054Y-23546676D01*
X-5353649Y-23555214D01*
X-5455724Y-23631715D01*
X-5468285Y-23644276D01*
X-5544786Y-23746351D01*
X-5553324Y-23761946D01*
X-5598478Y-23882394D01*
X-5602105Y-23897649D01*
X-5607631Y-23948514D01*
X-5608000Y-23955328D01*
X-5608000Y-25227885D01*
X-9991500Y-25227885D01*
X-9991500Y-18568125D01*
X-9971498Y-18500004D01*
X-9941067Y-18472120D01*
X-9941199Y-18471988D01*
X-9262021Y-17792811D01*
X-9254408Y-17778868D01*
X-9254539Y-17777034D01*
X-9258790Y-17770420D01*
X-9941199Y-17088012D01*
X-9940631Y-17087444D01*
X-9976088Y-17051985D01*
X-9991500Y-16991601D01*
X-9991500Y-16222477D01*
X-9971498Y-16154356D01*
X-9917842Y-16107863D01*
X-9847568Y-16097759D01*
X-9782988Y-16127253D01*
G37*
G04 #@! TD.AperFunction*
G04 #@! TA.AperFunction,Conductor*
G36*
X2914526Y-7988372D02*
G01*
X2971362Y-8030919D01*
X2978270Y-8041158D01*
X3034421Y-8133877D01*
X3034426Y-8133883D01*
X3038361Y-8140381D01*
X3108885Y-8210905D01*
X3142911Y-8273217D01*
X3137846Y-8344032D01*
X3108885Y-8389095D01*
X3038361Y-8459619D01*
X2949528Y-8606301D01*
X2947257Y-8613548D01*
X2947256Y-8613550D01*
X2926483Y-8679836D01*
X2898247Y-8769938D01*
X2891500Y-8843365D01*
X2891501Y-9356634D01*
X2898247Y-9430062D01*
X2900246Y-9436440D01*
X2900246Y-9436441D01*
X2939940Y-9563103D01*
X2949528Y-9593699D01*
X3038361Y-9740381D01*
X3108885Y-9810905D01*
X3142911Y-9873217D01*
X3137846Y-9944032D01*
X3108885Y-9989095D01*
X3038361Y-10059619D01*
X2949528Y-10206301D01*
X2947257Y-10213548D01*
X2947256Y-10213550D01*
X2936389Y-10248226D01*
X2898247Y-10369938D01*
X2891500Y-10443365D01*
X2891501Y-10956634D01*
X2891764Y-10959492D01*
X2891764Y-10959501D01*
X2895026Y-10995004D01*
X2898247Y-11030062D01*
X2900246Y-11036442D01*
X2901559Y-11042996D01*
X2898571Y-11043595D01*
X2899686Y-11101253D01*
X2862465Y-11161710D01*
X2798467Y-11192447D01*
X2778126Y-11194100D01*
X2540363Y-11194100D01*
X2498096Y-11186799D01*
X2483335Y-11181543D01*
X2483334Y-11181543D01*
X2476693Y-11179178D01*
X2295514Y-11157574D01*
X2288511Y-11158310D01*
X2288510Y-11158310D01*
X2256161Y-11161710D01*
X2114051Y-11176646D01*
X2107383Y-11178916D01*
X1947990Y-11233178D01*
X1947987Y-11233179D01*
X1941323Y-11235448D01*
X1785914Y-11331056D01*
X1655550Y-11458718D01*
X1556708Y-11612090D01*
X1554299Y-11618710D01*
X1554297Y-11618713D01*
X1497505Y-11774748D01*
X1494302Y-11783549D01*
X1471434Y-11964573D01*
X1472121Y-11971580D01*
X1472121Y-11971583D01*
X1477176Y-12023139D01*
X1489239Y-12146164D01*
X1546833Y-12319299D01*
X1550482Y-12325324D01*
X1635134Y-12465100D01*
X1641354Y-12475371D01*
X1768103Y-12606623D01*
X1773995Y-12610478D01*
X1773999Y-12610482D01*
X1914885Y-12702675D01*
X1920781Y-12706533D01*
X1927385Y-12708989D01*
X1927387Y-12708990D01*
X1966855Y-12723668D01*
X2091800Y-12770135D01*
X2272660Y-12794267D01*
X2279671Y-12793629D01*
X2279675Y-12793629D01*
X2419380Y-12780914D01*
X2454371Y-12777729D01*
X2461073Y-12775551D01*
X2461075Y-12775551D01*
X2621205Y-12723522D01*
X2621208Y-12723521D01*
X2627904Y-12721345D01*
X2652752Y-12706533D01*
X2778577Y-12631527D01*
X2778580Y-12631525D01*
X2784632Y-12627917D01*
X2916766Y-12502087D01*
X2918433Y-12503838D01*
X2968123Y-12470781D01*
X3005531Y-12465100D01*
X3008694Y-12465100D01*
X3077687Y-12485668D01*
X3105454Y-12503838D01*
X3191481Y-12560133D01*
X3198085Y-12562589D01*
X3198087Y-12562590D01*
X3276991Y-12591934D01*
X3362500Y-12623735D01*
X3369483Y-12624667D01*
X3369484Y-12624667D01*
X3450665Y-12635499D01*
X3515542Y-12664335D01*
X3554530Y-12723668D01*
X3560000Y-12760392D01*
X3560000Y-13063278D01*
X3539911Y-13131533D01*
X3452808Y-13266690D01*
X3450399Y-13273310D01*
X3450397Y-13273313D01*
X3392810Y-13431532D01*
X3390402Y-13438149D01*
X3367534Y-13619173D01*
X3367867Y-13622567D01*
X3347340Y-13689028D01*
X3293041Y-13734768D01*
X3277800Y-13740331D01*
X3256876Y-13746475D01*
X3255671Y-13747865D01*
X3254000Y-13755548D01*
X3254000Y-17239884D01*
X3258475Y-17255123D01*
X3259865Y-17256328D01*
X3267548Y-17257999D01*
X3791534Y-17257999D01*
X3849617Y-17272859D01*
X3853295Y-17275615D01*
X3989684Y-17326745D01*
X4051866Y-17333500D01*
X4744306Y-17333500D01*
X4753460Y-17334100D01*
X4753474Y-17333892D01*
X4757592Y-17334162D01*
X4761679Y-17334700D01*
X5062550Y-17334700D01*
X5130671Y-17354702D01*
X5177164Y-17408358D01*
X5187268Y-17478632D01*
X5157774Y-17543212D01*
X5150708Y-17550724D01*
X5084349Y-17615708D01*
X5055950Y-17643518D01*
X4957108Y-17796890D01*
X4954699Y-17803510D01*
X4954697Y-17803513D01*
X4897110Y-17961732D01*
X4894702Y-17968349D01*
X4871834Y-18149373D01*
X4889639Y-18330964D01*
X4891864Y-18337651D01*
X4892214Y-18339300D01*
X4886814Y-18410091D01*
X4843998Y-18466725D01*
X4777361Y-18491220D01*
X4768969Y-18491500D01*
X4549880Y-18491501D01*
X4543366Y-18491501D01*
X4540508Y-18491764D01*
X4540499Y-18491764D01*
X4504996Y-18495026D01*
X4469938Y-18498247D01*
X4463560Y-18500246D01*
X4463559Y-18500246D01*
X4313550Y-18547256D01*
X4313548Y-18547257D01*
X4306301Y-18549528D01*
X4159619Y-18638361D01*
X4089095Y-18708885D01*
X4026783Y-18742911D01*
X3955968Y-18737846D01*
X3910905Y-18708885D01*
X3840381Y-18638361D01*
X3693699Y-18549528D01*
X3686452Y-18547257D01*
X3686450Y-18547256D01*
X3620164Y-18526483D01*
X3530062Y-18498247D01*
X3456635Y-18491500D01*
X3453737Y-18491500D01*
X3149205Y-18491501D01*
X2843366Y-18491501D01*
X2840508Y-18491764D01*
X2840499Y-18491764D01*
X2804996Y-18495026D01*
X2769938Y-18498247D01*
X2763560Y-18500246D01*
X2763559Y-18500246D01*
X2613550Y-18547256D01*
X2613548Y-18547257D01*
X2606301Y-18549528D01*
X2459619Y-18638361D01*
X2370385Y-18727595D01*
X2308073Y-18761621D01*
X2281290Y-18764500D01*
X1953143Y-18764500D01*
X1885629Y-18744885D01*
X1758783Y-18664386D01*
X1638720Y-18621633D01*
X1593527Y-18605540D01*
X1593525Y-18605539D01*
X1586893Y-18603178D01*
X1579907Y-18602345D01*
X1579903Y-18602344D01*
X1432508Y-18584769D01*
X1405714Y-18581574D01*
X1398711Y-18582310D01*
X1398710Y-18582310D01*
X1352475Y-18587170D01*
X1224251Y-18600646D01*
X1217583Y-18602916D01*
X1058190Y-18657178D01*
X1058187Y-18657179D01*
X1051523Y-18659448D01*
X944906Y-18725039D01*
X924089Y-18737846D01*
X896114Y-18755056D01*
X872368Y-18778310D01*
X795495Y-18853590D01*
X765750Y-18882718D01*
X666908Y-19036090D01*
X647664Y-19088963D01*
X605572Y-19146131D01*
X539250Y-19171470D01*
X469759Y-19156930D01*
X449179Y-19141150D01*
X448279Y-19142238D01*
X415633Y-19115231D01*
X406853Y-19107241D01*
X-1084680Y-17615708D01*
X-1091790Y-17607895D01*
X-1095774Y-17601617D01*
X-1143531Y-17556770D01*
X-1146373Y-17554015D01*
X-1150593Y-17549795D01*
X-1184619Y-17487483D01*
X-1179554Y-17416668D01*
X-1137007Y-17359832D01*
X-1070487Y-17335021D01*
X-1061498Y-17334700D01*
X1238321Y-17334700D01*
X1242408Y-17334162D01*
X1246526Y-17333892D01*
X1246540Y-17334100D01*
X1255694Y-17333500D01*
X1948134Y-17333500D01*
X2010316Y-17326745D01*
X2057586Y-17309024D01*
X2138301Y-17278766D01*
X2138304Y-17278764D01*
X2146705Y-17275615D01*
X2150382Y-17272859D01*
X2208464Y-17258000D01*
X2727885Y-17258000D01*
X2743124Y-17253525D01*
X2744329Y-17252135D01*
X2746000Y-17244452D01*
X2746000Y-13760116D01*
X2741525Y-13744877D01*
X2740135Y-13743672D01*
X2732452Y-13742001D01*
X2208466Y-13742001D01*
X2150383Y-13727141D01*
X2146705Y-13724385D01*
X2010316Y-13673255D01*
X1948134Y-13666500D01*
X1255694Y-13666500D01*
X1246540Y-13665900D01*
X1246526Y-13666108D01*
X1242408Y-13665838D01*
X1238321Y-13665300D01*
X930900Y-13665300D01*
X862779Y-13645298D01*
X816286Y-13591642D01*
X804900Y-13539300D01*
X804900Y-10630483D01*
X825952Y-10560756D01*
X893438Y-10459181D01*
X897339Y-10453310D01*
X955407Y-10300446D01*
X959633Y-10289322D01*
X959634Y-10289317D01*
X962133Y-10282739D01*
X973789Y-10199804D01*
X986976Y-10105975D01*
X986976Y-10105970D01*
X987527Y-10102052D01*
X987846Y-10079200D01*
X967507Y-9897875D01*
X907501Y-9725561D01*
X810811Y-9570824D01*
X805848Y-9565826D01*
X805304Y-9565140D01*
X778666Y-9499330D01*
X791836Y-9429566D01*
X814954Y-9397780D01*
X934729Y-9278005D01*
X997041Y-9243979D01*
X1023824Y-9241100D01*
X1215380Y-9241100D01*
X1226614Y-9241630D01*
X1234119Y-9243308D01*
X1302412Y-9241162D01*
X1306369Y-9241100D01*
X1334383Y-9241100D01*
X1338308Y-9240604D01*
X1338309Y-9240604D01*
X1338404Y-9240592D01*
X1350249Y-9239659D01*
X1380070Y-9238722D01*
X1386682Y-9238514D01*
X1386683Y-9238514D01*
X1394605Y-9238265D01*
X1414149Y-9232587D01*
X1433512Y-9228577D01*
X1445840Y-9227020D01*
X1445842Y-9227020D01*
X1453699Y-9226027D01*
X1461063Y-9223111D01*
X1461068Y-9223110D01*
X1494956Y-9209693D01*
X1506185Y-9205848D01*
X1528041Y-9199498D01*
X1548793Y-9193469D01*
X1555620Y-9189431D01*
X1555623Y-9189430D01*
X1566306Y-9183112D01*
X1584064Y-9174412D01*
X1595615Y-9169839D01*
X1595621Y-9169835D01*
X1602988Y-9166919D01*
X1638891Y-9140834D01*
X1648810Y-9134319D01*
X1680168Y-9115774D01*
X1680172Y-9115771D01*
X1686998Y-9111734D01*
X1701382Y-9097350D01*
X1716416Y-9084509D01*
X1726473Y-9077202D01*
X1732887Y-9072542D01*
X1761178Y-9038344D01*
X1769167Y-9029565D01*
X2781399Y-8017333D01*
X2843711Y-7983307D01*
X2914526Y-7988372D01*
G37*
G04 #@! TD.AperFunction*
G04 #@! TA.AperFunction,Conductor*
G36*
X-2427460Y-16903502D02*
G01*
X-2406485Y-16920405D01*
X-2196384Y-17130507D01*
X-2185517Y-17142898D01*
X-2167013Y-17167013D01*
X-2163304Y-17169859D01*
X-2130072Y-17230712D01*
X-2135135Y-17301528D01*
X-2177679Y-17358365D01*
X-2244199Y-17383179D01*
X-2253192Y-17383500D01*
X-2819403Y-17383500D01*
X-2887524Y-17363498D01*
X-2934017Y-17309842D01*
X-2944121Y-17239568D01*
X-2937385Y-17213270D01*
X-2901522Y-17117606D01*
X-2897895Y-17102351D01*
X-2892369Y-17051486D01*
X-2892000Y-17044672D01*
X-2892000Y-17009500D01*
X-2871998Y-16941379D01*
X-2818342Y-16894886D01*
X-2766000Y-16883500D01*
X-2495581Y-16883500D01*
X-2427460Y-16903502D01*
G37*
G04 #@! TD.AperFunction*
G04 #@! TA.AperFunction,Conductor*
G36*
X-4531234Y-11562338D02*
G01*
X-4500822Y-11611608D01*
X-4499432Y-11615787D01*
X-4496467Y-11624699D01*
X-4492818Y-11630724D01*
X-4418300Y-11753767D01*
X-4401946Y-11780771D01*
X-4397055Y-11785836D01*
X-4397054Y-11785837D01*
X-4381692Y-11801745D01*
X-4275197Y-11912023D01*
X-4269305Y-11915878D01*
X-4269301Y-11915882D01*
X-4128415Y-12008075D01*
X-4122519Y-12011933D01*
X-4115915Y-12014389D01*
X-4115913Y-12014390D01*
X-4037010Y-12043734D01*
X-3951500Y-12075535D01*
X-3770640Y-12099667D01*
X-3763629Y-12099029D01*
X-3763625Y-12099029D01*
X-3623920Y-12086314D01*
X-3588929Y-12083129D01*
X-3582227Y-12080951D01*
X-3582225Y-12080951D01*
X-3422095Y-12028922D01*
X-3422092Y-12028921D01*
X-3415396Y-12026745D01*
X-3376016Y-12003270D01*
X-3307261Y-11985571D01*
X-3239852Y-12007854D01*
X-3195190Y-12063043D01*
X-3185500Y-12111500D01*
X-3185500Y-13171180D01*
X-3186030Y-13182414D01*
X-3187708Y-13189919D01*
X-3187459Y-13197838D01*
X-3185562Y-13258212D01*
X-3185500Y-13262169D01*
X-3185500Y-13290183D01*
X-3185004Y-13294108D01*
X-3185004Y-13294109D01*
X-3184992Y-13294204D01*
X-3184059Y-13306049D01*
X-3182665Y-13350405D01*
X-3180453Y-13358017D01*
X-3176987Y-13369948D01*
X-3172977Y-13389312D01*
X-3170427Y-13409499D01*
X-3167511Y-13416863D01*
X-3167510Y-13416868D01*
X-3154093Y-13450756D01*
X-3150248Y-13461985D01*
X-3137869Y-13504593D01*
X-3133831Y-13511420D01*
X-3133830Y-13511423D01*
X-3127512Y-13522106D01*
X-3118812Y-13539864D01*
X-3114239Y-13551415D01*
X-3114235Y-13551421D01*
X-3111319Y-13558788D01*
X-3106661Y-13565199D01*
X-3106660Y-13565201D01*
X-3085236Y-13594688D01*
X-3078719Y-13604610D01*
X-3060174Y-13635968D01*
X-3060171Y-13635972D01*
X-3056134Y-13642798D01*
X-3041750Y-13657182D01*
X-3028909Y-13672216D01*
X-3016942Y-13688687D01*
X-3010834Y-13693740D01*
X-2982745Y-13716977D01*
X-2973965Y-13724967D01*
X-1773728Y-14925205D01*
X-1739702Y-14987517D01*
X-1744767Y-15058333D01*
X-1787314Y-15115168D01*
X-1853834Y-15139979D01*
X-1862823Y-15140300D01*
X-2196375Y-15140300D01*
X-2240605Y-15132282D01*
X-2264684Y-15123255D01*
X-2326866Y-15116500D01*
X-2766001Y-15116500D01*
X-2834122Y-15096498D01*
X-2880615Y-15042842D01*
X-2892001Y-14990500D01*
X-2892001Y-14955331D01*
X-2892371Y-14948510D01*
X-2897895Y-14897648D01*
X-2901521Y-14882396D01*
X-2946676Y-14761946D01*
X-2955214Y-14746351D01*
X-3031715Y-14644276D01*
X-3044276Y-14631715D01*
X-3146351Y-14555214D01*
X-3161946Y-14546676D01*
X-3282394Y-14501522D01*
X-3297649Y-14497895D01*
X-3348514Y-14492369D01*
X-3355327Y-14492000D01*
X-3644668Y-14492001D01*
X-3651490Y-14492371D01*
X-3702352Y-14497895D01*
X-3717604Y-14501521D01*
X-3838054Y-14546676D01*
X-3853649Y-14555214D01*
X-3955724Y-14631715D01*
X-3968285Y-14644276D01*
X-4044786Y-14746351D01*
X-4053324Y-14761946D01*
X-4098478Y-14882394D01*
X-4102105Y-14897649D01*
X-4107631Y-14948514D01*
X-4108000Y-14955328D01*
X-4108000Y-14990500D01*
X-4128002Y-15058621D01*
X-4181658Y-15105114D01*
X-4234000Y-15116500D01*
X-4673134Y-15116500D01*
X-4735316Y-15123255D01*
X-4759395Y-15132282D01*
X-4803625Y-15140300D01*
X-5130103Y-15140300D01*
X-5157589Y-15137265D01*
X-5166581Y-15135255D01*
X-5267128Y-15112780D01*
X-5275054Y-15113029D01*
X-5275055Y-15113029D01*
X-5354345Y-15115521D01*
X-5421199Y-15117622D01*
X-5428811Y-15119834D01*
X-5428814Y-15119834D01*
X-5561612Y-15158416D01*
X-5561613Y-15158417D01*
X-5569225Y-15160628D01*
X-5701906Y-15239094D01*
X-6277892Y-15815080D01*
X-6285705Y-15822190D01*
X-6291983Y-15826174D01*
X-6297409Y-15831953D01*
X-6297410Y-15831953D01*
X-6336830Y-15873931D01*
X-6339585Y-15876773D01*
X-6358547Y-15895735D01*
X-6360973Y-15898862D01*
X-6361538Y-15899503D01*
X-6368506Y-15907661D01*
X-6397504Y-15938542D01*
X-6406728Y-15955319D01*
X-6417575Y-15971832D01*
X-6424452Y-15980698D01*
X-6424455Y-15980703D01*
X-6429313Y-15986966D01*
X-6434953Y-16000000D01*
X-6446138Y-16025847D01*
X-6451360Y-16036506D01*
X-6458085Y-16048739D01*
X-6508430Y-16098798D01*
X-6577846Y-16113692D01*
X-6644296Y-16088692D01*
X-6686681Y-16031735D01*
X-6694500Y-15988039D01*
X-6694500Y-11934500D01*
X-6674498Y-11866379D01*
X-6620842Y-11819886D01*
X-6568500Y-11808500D01*
X-5101866Y-11808500D01*
X-5039684Y-11801745D01*
X-4903295Y-11750615D01*
X-4786739Y-11663261D01*
X-4721204Y-11575819D01*
X-4664346Y-11533304D01*
X-4593527Y-11528278D01*
X-4531234Y-11562338D01*
G37*
G04 #@! TD.AperFunction*
G04 #@! TA.AperFunction,Conductor*
G36*
X5746121Y-4066002D02*
G01*
X5792614Y-4119658D01*
X5804000Y-4172000D01*
X5804000Y-9228000D01*
X5783998Y-9296121D01*
X5730342Y-9342614D01*
X5678000Y-9354000D01*
X5469400Y-9354000D01*
X5401279Y-9333998D01*
X5354786Y-9280342D01*
X5343400Y-9228000D01*
X5343400Y-7086920D01*
X5343929Y-7075691D01*
X5345608Y-7068181D01*
X5343462Y-6999901D01*
X5343400Y-6995944D01*
X5343400Y-6967917D01*
X5342889Y-6963871D01*
X5341957Y-6952036D01*
X5341056Y-6923340D01*
X5340564Y-6907695D01*
X5334887Y-6888154D01*
X5330878Y-6868794D01*
X5329321Y-6856466D01*
X5329320Y-6856463D01*
X5328327Y-6848601D01*
X5325410Y-6841235D01*
X5325409Y-6841229D01*
X5311991Y-6807339D01*
X5308147Y-6796111D01*
X5301004Y-6771526D01*
X5296000Y-6736371D01*
X5296000Y-4172000D01*
X5316002Y-4103879D01*
X5369658Y-4057386D01*
X5422000Y-4046000D01*
X5678000Y-4046000D01*
X5746121Y-4066002D01*
G37*
G04 #@! TD.AperFunction*
G04 #@! TA.AperFunction,Conductor*
G36*
X-9782988Y-3427253D02*
G01*
X-9776405Y-3433382D01*
X-9702038Y-3507749D01*
X-9697529Y-3510906D01*
X-9697527Y-3510908D01*
X-9658320Y-3538361D01*
X-9521654Y-3634056D01*
X-9516672Y-3636379D01*
X-9516667Y-3636382D01*
X-9388641Y-3696081D01*
X-9335356Y-3742998D01*
X-9315895Y-3811276D01*
X-9336437Y-3879236D01*
X-9388641Y-3924471D01*
X-9516417Y-3984054D01*
X-9525907Y-3989534D01*
X-9567149Y-4018411D01*
X-9575523Y-4028886D01*
X-9568455Y-4042333D01*
X-8619884Y-4990905D01*
X-8585859Y-5053217D01*
X-8590924Y-5124033D01*
X-8619885Y-5169095D01*
X-8890000Y-5439210D01*
X-9569176Y-6118387D01*
X-9575606Y-6130162D01*
X-9566310Y-6142176D01*
X-9525912Y-6170464D01*
X-9516416Y-6175947D01*
X-9388641Y-6235529D01*
X-9335356Y-6282446D01*
X-9315895Y-6350724D01*
X-9336437Y-6418684D01*
X-9388641Y-6463919D01*
X-9516666Y-6523618D01*
X-9516671Y-6523621D01*
X-9521653Y-6525944D01*
X-9526160Y-6529100D01*
X-9526162Y-6529101D01*
X-9697527Y-6649092D01*
X-9697530Y-6649094D01*
X-9702038Y-6652251D01*
X-9776405Y-6726618D01*
X-9838717Y-6760644D01*
X-9909532Y-6755579D01*
X-9966368Y-6713032D01*
X-9991179Y-6646512D01*
X-9991500Y-6637523D01*
X-9991500Y-5868125D01*
X-9971498Y-5800004D01*
X-9941067Y-5772120D01*
X-9941199Y-5771988D01*
X-9262021Y-5092811D01*
X-9254408Y-5078868D01*
X-9254539Y-5077034D01*
X-9258790Y-5070420D01*
X-9941199Y-4388012D01*
X-9940631Y-4387444D01*
X-9976088Y-4351985D01*
X-9991500Y-4291601D01*
X-9991500Y-3522477D01*
X-9971498Y-3454356D01*
X-9917842Y-3407863D01*
X-9847568Y-3397759D01*
X-9782988Y-3427253D01*
G37*
G04 #@! TD.AperFunction*
G04 #@! TA.AperFunction,Conductor*
G36*
X-4557879Y10471498D02*
G01*
X-4511386Y10417842D01*
X-4500000Y10365500D01*
X-4500000Y7999100D01*
X-4520002Y7930979D01*
X-4573658Y7884486D01*
X-4626000Y7873100D01*
X-5565080Y7873100D01*
X-5576314Y7873630D01*
X-5583819Y7875308D01*
X-5651529Y7873180D01*
X-5652112Y7873162D01*
X-5656069Y7873100D01*
X-5684083Y7873100D01*
X-5688008Y7872604D01*
X-5688009Y7872604D01*
X-5688104Y7872592D01*
X-5699949Y7871659D01*
X-5729770Y7870722D01*
X-5736382Y7870514D01*
X-5736383Y7870514D01*
X-5744305Y7870265D01*
X-5763848Y7864587D01*
X-5783212Y7860577D01*
X-5795540Y7859020D01*
X-5795542Y7859020D01*
X-5803399Y7858027D01*
X-5810763Y7855111D01*
X-5810768Y7855110D01*
X-5844656Y7841693D01*
X-5855885Y7837848D01*
X-5871989Y7833169D01*
X-5898493Y7825469D01*
X-5905320Y7821431D01*
X-5905323Y7821430D01*
X-5916006Y7815112D01*
X-5933764Y7806412D01*
X-5945315Y7801839D01*
X-5945321Y7801835D01*
X-5952688Y7798919D01*
X-5959099Y7794261D01*
X-5959101Y7794260D01*
X-5988588Y7772836D01*
X-5998510Y7766319D01*
X-6029868Y7747774D01*
X-6029872Y7747771D01*
X-6036698Y7743734D01*
X-6051082Y7729350D01*
X-6066116Y7716509D01*
X-6082587Y7704542D01*
X-6087640Y7698434D01*
X-6110877Y7670345D01*
X-6118867Y7661565D01*
X-6423982Y7356450D01*
X-6432303Y7348878D01*
X-6438803Y7344753D01*
X-6485586Y7294934D01*
X-6488341Y7292092D01*
X-6508139Y7272294D01*
X-6510563Y7269169D01*
X-6510571Y7269160D01*
X-6510637Y7269074D01*
X-6518345Y7260049D01*
X-6548717Y7227706D01*
X-6552535Y7220762D01*
X-6552536Y7220760D01*
X-6558522Y7209871D01*
X-6569373Y7193353D01*
X-6581850Y7177267D01*
X-6599476Y7136534D01*
X-6604693Y7125886D01*
X-6626069Y7087003D01*
X-6628040Y7079328D01*
X-6628042Y7079322D01*
X-6631131Y7067289D01*
X-6637534Y7048587D01*
X-6645617Y7029908D01*
X-6646856Y7022083D01*
X-6652560Y6986073D01*
X-6654965Y6974460D01*
X-6666000Y6931482D01*
X-6666000Y6911135D01*
X-6667551Y6891424D01*
X-6670735Y6871321D01*
X-6669989Y6863429D01*
X-6666559Y6827144D01*
X-6666000Y6815286D01*
X-6666000Y2671983D01*
X-6668232Y2648374D01*
X-6668302Y2648009D01*
X-6668302Y2648004D01*
X-6669787Y2640221D01*
X-6669289Y2632310D01*
X-6666249Y2583987D01*
X-6666000Y2576075D01*
X-6666000Y2560017D01*
X-6665503Y2556083D01*
X-6665503Y2556082D01*
X-6663987Y2544077D01*
X-6663243Y2536201D01*
X-6659705Y2479973D01*
X-6657256Y2472435D01*
X-6657255Y2472431D01*
X-6657141Y2472080D01*
X-6651969Y2448944D01*
X-6651921Y2448565D01*
X-6651920Y2448560D01*
X-6650927Y2440701D01*
X-6648011Y2433336D01*
X-6648010Y2433332D01*
X-6630180Y2388300D01*
X-6627499Y2380852D01*
X-6610088Y2327267D01*
X-6605845Y2320580D01*
X-6605843Y2320577D01*
X-6605640Y2320258D01*
X-6594874Y2299128D01*
X-6591819Y2291412D01*
X-6587159Y2284998D01*
X-6558697Y2245823D01*
X-6554249Y2239277D01*
X-6528305Y2198396D01*
X-6528302Y2198393D01*
X-6524053Y2191697D01*
X-6518006Y2186019D01*
X-6502318Y2168224D01*
X-6497442Y2161513D01*
X-6454026Y2125596D01*
X-6448092Y2120364D01*
X-6420569Y2094519D01*
X-6407006Y2081783D01*
X-6400062Y2077965D01*
X-6400060Y2077964D01*
X-6399732Y2077784D01*
X-6380121Y2064456D01*
X-6379838Y2064222D01*
X-6379834Y2064219D01*
X-6373724Y2059165D01*
X-6337359Y2042053D01*
X-6322736Y2035172D01*
X-6315704Y2031590D01*
X-6269370Y2006117D01*
X-6219315Y1955775D01*
X-6204811Y1882099D01*
X-6208131Y1851536D01*
X-6208132Y1851526D01*
X-6208500Y1848134D01*
X-6208500Y951866D01*
X-6201745Y889684D01*
X-6150615Y753295D01*
X-6063261Y636739D01*
X-5946705Y549385D01*
X-5810316Y498255D01*
X-5748134Y491500D01*
X-5461500Y491500D01*
X-5393379Y471498D01*
X-5346886Y417842D01*
X-5335500Y365500D01*
X-5335500Y-4322522D01*
X-5355502Y-4390643D01*
X-5409158Y-4437136D01*
X-5479432Y-4447240D01*
X-5494111Y-4444229D01*
X-5634030Y-4406738D01*
X-5634032Y-4406738D01*
X-5639345Y-4405314D01*
X-5850000Y-4386884D01*
X-6060655Y-4405314D01*
X-6065968Y-4406738D01*
X-6065970Y-4406738D01*
X-6259600Y-4458621D01*
X-6259602Y-4458622D01*
X-6264910Y-4460044D01*
X-6269891Y-4462366D01*
X-6269892Y-4462367D01*
X-6451577Y-4547088D01*
X-6451580Y-4547090D01*
X-6456558Y-4549411D01*
X-6496232Y-4577191D01*
X-6563503Y-4599878D01*
X-6632363Y-4582593D01*
X-6680947Y-4530824D01*
X-6694500Y-4473977D01*
X-6694500Y-1639020D01*
X-6693970Y-1627786D01*
X-6692292Y-1620281D01*
X-6694438Y-1551988D01*
X-6694500Y-1548031D01*
X-6694500Y-1520017D01*
X-6695008Y-1515996D01*
X-6695942Y-1504144D01*
X-6697086Y-1467718D01*
X-6697086Y-1467717D01*
X-6697335Y-1459795D01*
X-6703013Y-1440251D01*
X-6707023Y-1420888D01*
X-6708580Y-1408560D01*
X-6708580Y-1408558D01*
X-6709573Y-1400701D01*
X-6712489Y-1393337D01*
X-6712490Y-1393332D01*
X-6725907Y-1359444D01*
X-6729752Y-1348215D01*
X-6735920Y-1326987D01*
X-6742131Y-1305607D01*
X-6752490Y-1288091D01*
X-6761187Y-1270341D01*
X-6768681Y-1251412D01*
X-6773982Y-1244115D01*
X-6787067Y-1226107D01*
X-6794760Y-1215517D01*
X-6801278Y-1205595D01*
X-6819830Y-1174224D01*
X-6819834Y-1174219D01*
X-6823866Y-1167401D01*
X-6838253Y-1153014D01*
X-6851094Y-1137980D01*
X-6858398Y-1127927D01*
X-6863058Y-1121513D01*
X-6897250Y-1093227D01*
X-6906029Y-1085238D01*
X-7621075Y-370192D01*
X-7655101Y-307880D01*
X-7653687Y-248486D01*
X-7645885Y-219371D01*
X-7626693Y0D01*
X-7645885Y219371D01*
X-7702880Y432076D01*
X-7760093Y554771D01*
X-7793618Y626666D01*
X-7793621Y626671D01*
X-7795944Y631653D01*
X-7876087Y746109D01*
X-7919092Y807527D01*
X-7919094Y807530D01*
X-7922251Y812038D01*
X-8077962Y967749D01*
X-8098995Y982477D01*
X-8157241Y1023261D01*
X-8258346Y1094056D01*
X-8457924Y1187120D01*
X-8670629Y1244115D01*
X-8890000Y1263307D01*
X-9109371Y1244115D01*
X-9322076Y1187120D01*
X-9415438Y1143585D01*
X-9516666Y1096382D01*
X-9516671Y1096379D01*
X-9521653Y1094056D01*
X-9526160Y1090900D01*
X-9526162Y1090899D01*
X-9697527Y970908D01*
X-9697530Y970906D01*
X-9702038Y967749D01*
X-9776405Y893382D01*
X-9838717Y859356D01*
X-9909532Y864421D01*
X-9966368Y906968D01*
X-9991179Y973488D01*
X-9991500Y982477D01*
X-9991500Y10365500D01*
X-9971498Y10433621D01*
X-9917842Y10480114D01*
X-9865500Y10491500D01*
X-4626000Y10491500D01*
X-4557879Y10471498D01*
G37*
G04 #@! TD.AperFunction*
G04 #@! TA.AperFunction,Conductor*
G36*
X9933621Y10471498D02*
G01*
X9980114Y10417842D01*
X9991500Y10365500D01*
X9991500Y982477D01*
X9971498Y914356D01*
X9917842Y867863D01*
X9847568Y857759D01*
X9782988Y887253D01*
X9776405Y893382D01*
X9702038Y967749D01*
X9681005Y982477D01*
X9622759Y1023261D01*
X9521654Y1094056D01*
X9322076Y1187120D01*
X9109371Y1244115D01*
X8890000Y1263307D01*
X8670629Y1244115D01*
X8665323Y1242693D01*
X8665316Y1242692D01*
X8582611Y1220531D01*
X8511635Y1222221D01*
X8452839Y1262015D01*
X8424891Y1327280D01*
X8424000Y1342238D01*
X8424000Y4968180D01*
X8424529Y4979409D01*
X8426208Y4986919D01*
X8424062Y5055199D01*
X8424000Y5059156D01*
X8424000Y5087183D01*
X8423489Y5091229D01*
X8422557Y5103064D01*
X8421413Y5139478D01*
X8421164Y5147405D01*
X8415487Y5166946D01*
X8411478Y5186306D01*
X8409921Y5198634D01*
X8409920Y5198637D01*
X8408927Y5206499D01*
X8406010Y5213865D01*
X8406009Y5213871D01*
X8392591Y5247761D01*
X8388746Y5258990D01*
X8379301Y5291500D01*
X8376369Y5301593D01*
X8372336Y5308412D01*
X8372334Y5308417D01*
X8366010Y5319109D01*
X8357313Y5336859D01*
X8349819Y5355788D01*
X8323740Y5391683D01*
X8317222Y5401605D01*
X8298670Y5432976D01*
X8298666Y5432981D01*
X8294634Y5439799D01*
X8280247Y5454186D01*
X8267406Y5469220D01*
X8260102Y5479273D01*
X8255442Y5485687D01*
X8221250Y5513973D01*
X8212471Y5521962D01*
X6103350Y7631083D01*
X6095774Y7639409D01*
X6091653Y7645903D01*
X6041834Y7692686D01*
X6038993Y7695440D01*
X6019194Y7715239D01*
X6016069Y7717663D01*
X6016060Y7717671D01*
X6015974Y7717737D01*
X6006949Y7725445D01*
X5980385Y7750390D01*
X5974606Y7755817D01*
X5956769Y7765623D01*
X5940253Y7776473D01*
X5924167Y7788950D01*
X5883434Y7806576D01*
X5872786Y7811793D01*
X5847909Y7825469D01*
X5833903Y7833169D01*
X5826228Y7835140D01*
X5826222Y7835142D01*
X5814189Y7838231D01*
X5795487Y7844634D01*
X5776808Y7852717D01*
X5737013Y7859020D01*
X5732973Y7859660D01*
X5721360Y7862065D01*
X5678382Y7873100D01*
X5658035Y7873100D01*
X5638324Y7874651D01*
X5626050Y7876595D01*
X5618221Y7877835D01*
X5610329Y7877089D01*
X5574044Y7873659D01*
X5562186Y7873100D01*
X4626000Y7873100D01*
X4557879Y7893102D01*
X4511386Y7946758D01*
X4500000Y7999100D01*
X4500000Y10365500D01*
X4520002Y10433621D01*
X4573658Y10480114D01*
X4626000Y10491500D01*
X9865500Y10491500D01*
X9933621Y10471498D01*
G37*
G04 #@! TD.AperFunction*
M02*
