G04 #@! TF.GenerationSoftware,KiCad,Pcbnew,(6.0.7-1)-1*
G04 #@! TF.CreationDate,2022-09-24T13:58:25+09:00*
G04 #@! TF.ProjectId,EB-BM71,45422d42-4d37-4312-9e6b-696361645f70,V1.0*
G04 #@! TF.SameCoordinates,Original*
G04 #@! TF.FileFunction,Soldermask,Top*
G04 #@! TF.FilePolarity,Negative*
%FSLAX46Y46*%
G04 Gerber Fmt 4.6, Leading zero omitted, Abs format (unit mm)*
G04 Created by KiCad (PCBNEW (6.0.7-1)-1) date 2022-09-24 13:58:25*
%MOMM*%
%LPD*%
G01*
G04 APERTURE LIST*
G04 Aperture macros list*
%AMRoundRect*
0 Rectangle with rounded corners*
0 $1 Rounding radius*
0 $2 $3 $4 $5 $6 $7 $8 $9 X,Y pos of 4 corners*
0 Add a 4 corners polygon primitive as box body*
4,1,4,$2,$3,$4,$5,$6,$7,$8,$9,$2,$3,0*
0 Add four circle primitives for the rounded corners*
1,1,$1+$1,$2,$3*
1,1,$1+$1,$4,$5*
1,1,$1+$1,$6,$7*
1,1,$1+$1,$8,$9*
0 Add four rect primitives between the rounded corners*
20,1,$1+$1,$2,$3,$4,$5,0*
20,1,$1+$1,$4,$5,$6,$7,0*
20,1,$1+$1,$6,$7,$8,$9,0*
20,1,$1+$1,$8,$9,$2,$3,0*%
G04 Aperture macros list end*
%ADD10C,1.500000*%
%ADD11RoundRect,0.200000X-0.250000X-0.200000X0.250000X-0.200000X0.250000X0.200000X-0.250000X0.200000X0*%
%ADD12R,0.400000X1.400000*%
%ADD13R,2.200000X3.000000*%
%ADD14R,1.400000X0.150000*%
%ADD15R,0.350000X0.150000*%
%ADD16R,1.500000X2.500000*%
%ADD17R,2.000000X0.800000*%
%ADD18R,0.800000X2.000000*%
%ADD19R,0.675000X0.200000*%
%ADD20R,0.200000X0.700000*%
%ADD21RoundRect,0.200000X0.250000X0.200000X-0.250000X0.200000X-0.250000X-0.200000X0.250000X-0.200000X0*%
%ADD22R,1.400000X1.400000*%
%ADD23C,1.400000*%
G04 APERTURE END LIST*
D10*
X8890000Y0D03*
X8890000Y-2540000D03*
X8890000Y-5080000D03*
X8890000Y-7620000D03*
X8890000Y-10160000D03*
X8890000Y-12700000D03*
X8890000Y-15240000D03*
X8890000Y-17780000D03*
D11*
X3150000Y-21000000D03*
X4850000Y-21000000D03*
D12*
X-1600000Y-23000000D03*
X-800000Y-23000000D03*
X0Y-23000000D03*
X800000Y-23000000D03*
X1600000Y-23000000D03*
D13*
X4000000Y-25500000D03*
X-4000000Y-25500000D03*
D11*
X3850000Y-7500000D03*
X5550000Y-7500000D03*
X3850000Y-10700000D03*
X5550000Y-10700000D03*
X3850000Y-9100000D03*
X5550000Y-9100000D03*
X-4850000Y-21000000D03*
X-3150000Y-21000000D03*
X3850000Y-5900000D03*
X5550000Y-5900000D03*
D14*
X4800000Y-16750000D03*
X4800000Y-16250000D03*
X4800000Y-15750000D03*
X4800000Y-15250000D03*
X4800000Y-14750000D03*
X4800000Y-14250000D03*
X1200000Y-14250000D03*
X1200000Y-14750000D03*
X1200000Y-15250000D03*
X1200000Y-15750000D03*
X1200000Y-16250000D03*
X1200000Y-16750000D03*
D15*
X3925000Y-14750000D03*
D16*
X3000000Y-15500000D03*
D11*
X3850000Y-4300000D03*
X5550000Y-4300000D03*
D17*
X-4700000Y6200000D03*
X-4700000Y5000000D03*
X-4700000Y3800000D03*
X-4700000Y2600000D03*
X-4700000Y1400000D03*
D18*
X-3000000Y-700000D03*
X-1800000Y-700000D03*
X-600000Y-700000D03*
X600000Y-700000D03*
X1800000Y-700000D03*
X3000000Y-700000D03*
D17*
X4700000Y1400000D03*
X4700000Y2600000D03*
X4700000Y3800000D03*
X4700000Y5000000D03*
X4700000Y6200000D03*
D11*
X3150000Y-19400000D03*
X4850000Y-19400000D03*
D10*
X-8890000Y0D03*
X-8890000Y-2540000D03*
X-8890000Y-5080000D03*
X-8890000Y-7620000D03*
X-8890000Y-10160000D03*
X-8890000Y-12700000D03*
X-8890000Y-15240000D03*
X-8890000Y-17780000D03*
D19*
X-4287500Y-16275000D03*
X-4287500Y-15725000D03*
D20*
X-3500000Y-15350000D03*
D19*
X-2712500Y-15725000D03*
X-2712500Y-16275000D03*
D20*
X-3500000Y-16650000D03*
D21*
X-3150000Y-19400000D03*
X-4850000Y-19400000D03*
D22*
X-5850000Y-10600000D03*
D23*
X-5850000Y-8100000D03*
X-5850000Y-5600000D03*
X-2550000Y-10600000D03*
X-2550000Y-8100000D03*
X-2550000Y-5600000D03*
M02*
