G04 #@! TF.GenerationSoftware,KiCad,Pcbnew,(6.0.7-1)-1*
G04 #@! TF.CreationDate,2022-09-24T13:58:25+09:00*
G04 #@! TF.ProjectId,EB-BM71,45422d42-4d37-4312-9e6b-696361645f70,V1.0*
G04 #@! TF.SameCoordinates,Original*
G04 #@! TF.FileFunction,Legend,Top*
G04 #@! TF.FilePolarity,Positive*
%FSLAX46Y46*%
G04 Gerber Fmt 4.6, Leading zero omitted, Abs format (unit mm)*
G04 Created by KiCad (PCBNEW (6.0.7-1)-1) date 2022-09-24 13:58:25*
%MOMM*%
%LPD*%
G01*
G04 APERTURE LIST*
%ADD10C,0.120000*%
%ADD11C,0.150000*%
%ADD12C,0.200000*%
G04 APERTURE END LIST*
D10*
X-7071428Y114285D02*
X-7071428Y399999D01*
X-7357142Y428571D01*
X-7328571Y400000D01*
X-7300000Y342857D01*
X-7300000Y199999D01*
X-7328571Y142857D01*
X-7357142Y114285D01*
X-7414285Y85714D01*
X-7557142Y85714D01*
X-7614285Y114285D01*
X-7642857Y142857D01*
X-7671428Y200000D01*
X-7671428Y342857D01*
X-7642857Y400000D01*
X-7614285Y428571D01*
X-7071428Y-85714D02*
X-7671428Y-285714D01*
X-7071428Y-485714D01*
X7671428Y-957142D02*
X7071428Y-957142D01*
X7071428Y-728571D01*
X7100000Y-671428D01*
X7128571Y-642857D01*
X7185714Y-614285D01*
X7271428Y-614285D01*
X7328571Y-642857D01*
X7357142Y-671428D01*
X7385714Y-728571D01*
X7385714Y-957142D01*
X7071428Y-242857D02*
X7071428Y-185714D01*
X7100000Y-128571D01*
X7128571Y-99999D01*
X7185714Y-71428D01*
X7300000Y-42857D01*
X7442857Y-42857D01*
X7557142Y-71428D01*
X7614285Y-100000D01*
X7642857Y-128571D01*
X7671428Y-185714D01*
X7671428Y-242857D01*
X7642857Y-300000D01*
X7614285Y-328571D01*
X7557142Y-357142D01*
X7442857Y-385714D01*
X7300000Y-385714D01*
X7185714Y-357142D01*
X7128571Y-328571D01*
X7100000Y-300000D01*
X7071428Y-242857D01*
X7728571Y71428D02*
X7728571Y528571D01*
X7071428Y785714D02*
X7071428Y842857D01*
X7100000Y900000D01*
X7128571Y928571D01*
X7185714Y957142D01*
X7300000Y985714D01*
X7442857Y985714D01*
X7557142Y957142D01*
X7614285Y928571D01*
X7642857Y900000D01*
X7671428Y842857D01*
X7671428Y785714D01*
X7642857Y728571D01*
X7614285Y700000D01*
X7557142Y671428D01*
X7442857Y642857D01*
X7300000Y642857D01*
X7185714Y671428D01*
X7128571Y700000D01*
X7100000Y728571D01*
X7071428Y785714D01*
X7671428Y-3497142D02*
X7071428Y-3497142D01*
X7071428Y-3268571D01*
X7100000Y-3211428D01*
X7128571Y-3182857D01*
X7185714Y-3154285D01*
X7271428Y-3154285D01*
X7328571Y-3182857D01*
X7357142Y-3211428D01*
X7385714Y-3268571D01*
X7385714Y-3497142D01*
X7071428Y-2782857D02*
X7071428Y-2725714D01*
X7100000Y-2668571D01*
X7128571Y-2640000D01*
X7185714Y-2611428D01*
X7300000Y-2582857D01*
X7442857Y-2582857D01*
X7557142Y-2611428D01*
X7614285Y-2640000D01*
X7642857Y-2668571D01*
X7671428Y-2725714D01*
X7671428Y-2782857D01*
X7642857Y-2840000D01*
X7614285Y-2868571D01*
X7557142Y-2897142D01*
X7442857Y-2925714D01*
X7300000Y-2925714D01*
X7185714Y-2897142D01*
X7128571Y-2868571D01*
X7100000Y-2840000D01*
X7071428Y-2782857D01*
X7728571Y-2468571D02*
X7728571Y-2011428D01*
X7128571Y-1897142D02*
X7100000Y-1868571D01*
X7071428Y-1811428D01*
X7071428Y-1668571D01*
X7100000Y-1611428D01*
X7128571Y-1582857D01*
X7185714Y-1554285D01*
X7242857Y-1554285D01*
X7328571Y-1582857D01*
X7671428Y-1925714D01*
X7671428Y-1554285D01*
X-7671428Y-9760000D02*
X-7385714Y-9560000D01*
X-7671428Y-9417142D02*
X-7071428Y-9417142D01*
X-7071428Y-9645714D01*
X-7100000Y-9702857D01*
X-7128571Y-9731428D01*
X-7185714Y-9760000D01*
X-7271428Y-9760000D01*
X-7328571Y-9731428D01*
X-7357142Y-9702857D01*
X-7385714Y-9645714D01*
X-7385714Y-9417142D01*
X-7071428Y-9960000D02*
X-7671428Y-10360000D01*
X-7071428Y-10360000D02*
X-7671428Y-9960000D01*
X-7671428Y-10588571D02*
X-7071428Y-10588571D01*
X-7071428Y-10731428D01*
X-7100000Y-10817142D01*
X-7157142Y-10874285D01*
X-7214285Y-10902857D01*
X-7328571Y-10931428D01*
X-7414285Y-10931428D01*
X-7528571Y-10902857D01*
X-7585714Y-10874285D01*
X-7642857Y-10817142D01*
X-7671428Y-10731428D01*
X-7671428Y-10588571D01*
X-7071428Y-1654285D02*
X-7071428Y-2025714D01*
X-7300000Y-1825714D01*
X-7300000Y-1911428D01*
X-7328571Y-1968571D01*
X-7357142Y-1997142D01*
X-7414285Y-2025714D01*
X-7557142Y-2025714D01*
X-7614285Y-1997142D01*
X-7642857Y-1968571D01*
X-7671428Y-1911428D01*
X-7671428Y-1740000D01*
X-7642857Y-1682857D01*
X-7614285Y-1654285D01*
X-7614285Y-2282857D02*
X-7642857Y-2311428D01*
X-7671428Y-2282857D01*
X-7642857Y-2254285D01*
X-7614285Y-2282857D01*
X-7671428Y-2282857D01*
X-7071428Y-2511428D02*
X-7071428Y-2882857D01*
X-7300000Y-2682857D01*
X-7300000Y-2768571D01*
X-7328571Y-2825714D01*
X-7357142Y-2854285D01*
X-7414285Y-2882857D01*
X-7557142Y-2882857D01*
X-7614285Y-2854285D01*
X-7642857Y-2825714D01*
X-7671428Y-2768571D01*
X-7671428Y-2597142D01*
X-7642857Y-2540000D01*
X-7614285Y-2511428D01*
X-7071428Y-3054285D02*
X-7671428Y-3254285D01*
X-7071428Y-3454285D01*
X-7100000Y-17322857D02*
X-7071428Y-17265714D01*
X-7071428Y-17180000D01*
X-7100000Y-17094285D01*
X-7157142Y-17037142D01*
X-7214285Y-17008571D01*
X-7328571Y-16980000D01*
X-7414285Y-16980000D01*
X-7528571Y-17008571D01*
X-7585714Y-17037142D01*
X-7642857Y-17094285D01*
X-7671428Y-17180000D01*
X-7671428Y-17237142D01*
X-7642857Y-17322857D01*
X-7614285Y-17351428D01*
X-7414285Y-17351428D01*
X-7414285Y-17237142D01*
X-7671428Y-17608571D02*
X-7071428Y-17608571D01*
X-7671428Y-17951428D01*
X-7071428Y-17951428D01*
X-7671428Y-18237142D02*
X-7071428Y-18237142D01*
X-7071428Y-18380000D01*
X-7100000Y-18465714D01*
X-7157142Y-18522857D01*
X-7214285Y-18551428D01*
X-7328571Y-18580000D01*
X-7414285Y-18580000D01*
X-7528571Y-18551428D01*
X-7585714Y-18522857D01*
X-7642857Y-18465714D01*
X-7671428Y-18380000D01*
X-7671428Y-18237142D01*
X7671428Y-6057142D02*
X7071428Y-6057142D01*
X7071428Y-5828571D01*
X7100000Y-5771428D01*
X7128571Y-5742857D01*
X7185714Y-5714285D01*
X7271428Y-5714285D01*
X7328571Y-5742857D01*
X7357142Y-5771428D01*
X7385714Y-5828571D01*
X7385714Y-6057142D01*
X7671428Y-5142857D02*
X7671428Y-5485714D01*
X7671428Y-5314285D02*
X7071428Y-5314285D01*
X7157142Y-5371428D01*
X7214285Y-5428571D01*
X7242857Y-5485714D01*
X7728571Y-5028571D02*
X7728571Y-4571428D01*
X7128571Y-4457142D02*
X7100000Y-4428571D01*
X7071428Y-4371428D01*
X7071428Y-4228571D01*
X7100000Y-4171428D01*
X7128571Y-4142857D01*
X7185714Y-4114285D01*
X7242857Y-4114285D01*
X7328571Y-4142857D01*
X7671428Y-4485714D01*
X7671428Y-4114285D01*
D11*
X-1623809Y-4752380D02*
X-1623809Y-3752380D01*
X-1242857Y-3752380D01*
X-1147619Y-3800000D01*
X-1100000Y-3847619D01*
X-1052380Y-3942857D01*
X-1052380Y-4085714D01*
X-1100000Y-4180952D01*
X-1147619Y-4228571D01*
X-1242857Y-4276190D01*
X-1623809Y-4276190D01*
X-623809Y-4752380D02*
X-623809Y-3752380D01*
X-147619Y-4752380D02*
X-147619Y-3752380D01*
X423809Y-4752380D01*
X423809Y-3752380D01*
X-1761904Y-11452380D02*
X-1761904Y-12261904D01*
X-1714285Y-12357142D01*
X-1666666Y-12404761D01*
X-1571428Y-12452380D01*
X-1380952Y-12452380D01*
X-1285714Y-12404761D01*
X-1238095Y-12357142D01*
X-1190476Y-12261904D01*
X-1190476Y-11452380D01*
X-761904Y-12404761D02*
X-619047Y-12452380D01*
X-380952Y-12452380D01*
X-285714Y-12404761D01*
X-238095Y-12357142D01*
X-190476Y-12261904D01*
X-190476Y-12166666D01*
X-238095Y-12071428D01*
X-285714Y-12023809D01*
X-380952Y-11976190D01*
X-571428Y-11928571D01*
X-666666Y-11880952D01*
X-714285Y-11833333D01*
X-761904Y-11738095D01*
X-761904Y-11642857D01*
X-714285Y-11547619D01*
X-666666Y-11500000D01*
X-571428Y-11452380D01*
X-333333Y-11452380D01*
X-190476Y-11500000D01*
X571428Y-11928571D02*
X714285Y-11976190D01*
X761904Y-12023809D01*
X809523Y-12119047D01*
X809523Y-12261904D01*
X761904Y-12357142D01*
X714285Y-12404761D01*
X619047Y-12452380D01*
X238095Y-12452380D01*
X238095Y-11452380D01*
X571428Y-11452380D01*
X666666Y-11500000D01*
X714285Y-11547619D01*
X761904Y-11642857D01*
X761904Y-11738095D01*
X714285Y-11833333D01*
X666666Y-11880952D01*
X571428Y-11928571D01*
X238095Y-11928571D01*
D10*
X7671428Y-16197142D02*
X7071428Y-16197142D01*
X7071428Y-15968571D01*
X7100000Y-15911428D01*
X7128571Y-15882857D01*
X7185714Y-15854285D01*
X7271428Y-15854285D01*
X7328571Y-15882857D01*
X7357142Y-15911428D01*
X7385714Y-15968571D01*
X7385714Y-16197142D01*
X7128571Y-15625714D02*
X7100000Y-15597142D01*
X7071428Y-15540000D01*
X7071428Y-15397142D01*
X7100000Y-15340000D01*
X7128571Y-15311428D01*
X7185714Y-15282857D01*
X7242857Y-15282857D01*
X7328571Y-15311428D01*
X7671428Y-15654285D01*
X7671428Y-15282857D01*
X7728571Y-15168571D02*
X7728571Y-14711428D01*
X7071428Y-14625714D02*
X7071428Y-14225714D01*
X7671428Y-14482857D01*
X7671428Y-11117142D02*
X7071428Y-11117142D01*
X7071428Y-10888571D01*
X7100000Y-10831428D01*
X7128571Y-10802857D01*
X7185714Y-10774285D01*
X7271428Y-10774285D01*
X7328571Y-10802857D01*
X7357142Y-10831428D01*
X7385714Y-10888571D01*
X7385714Y-11117142D01*
X7671428Y-10202857D02*
X7671428Y-10545714D01*
X7671428Y-10374285D02*
X7071428Y-10374285D01*
X7157142Y-10431428D01*
X7214285Y-10488571D01*
X7242857Y-10545714D01*
X7728571Y-10088571D02*
X7728571Y-9631428D01*
X7071428Y-9231428D02*
X7071428Y-9345714D01*
X7100000Y-9402857D01*
X7128571Y-9431428D01*
X7214285Y-9488571D01*
X7328571Y-9517142D01*
X7557142Y-9517142D01*
X7614285Y-9488571D01*
X7642857Y-9460000D01*
X7671428Y-9402857D01*
X7671428Y-9288571D01*
X7642857Y-9231428D01*
X7614285Y-9202857D01*
X7557142Y-9174285D01*
X7414285Y-9174285D01*
X7357142Y-9202857D01*
X7328571Y-9231428D01*
X7300000Y-9288571D01*
X7300000Y-9402857D01*
X7328571Y-9460000D01*
X7357142Y-9488571D01*
X7414285Y-9517142D01*
X7671428Y-8577142D02*
X7071428Y-8577142D01*
X7071428Y-8348571D01*
X7100000Y-8291428D01*
X7128571Y-8262857D01*
X7185714Y-8234285D01*
X7271428Y-8234285D01*
X7328571Y-8262857D01*
X7357142Y-8291428D01*
X7385714Y-8348571D01*
X7385714Y-8577142D01*
X7671428Y-7662857D02*
X7671428Y-8005714D01*
X7671428Y-7834285D02*
X7071428Y-7834285D01*
X7157142Y-7891428D01*
X7214285Y-7948571D01*
X7242857Y-8005714D01*
X7728571Y-7548571D02*
X7728571Y-7091428D01*
X7071428Y-7005714D02*
X7071428Y-6634285D01*
X7300000Y-6834285D01*
X7300000Y-6748571D01*
X7328571Y-6691428D01*
X7357142Y-6662857D01*
X7414285Y-6634285D01*
X7557142Y-6634285D01*
X7614285Y-6662857D01*
X7642857Y-6691428D01*
X7671428Y-6748571D01*
X7671428Y-6920000D01*
X7642857Y-6977142D01*
X7614285Y-7005714D01*
X-7100000Y-4622857D02*
X-7071428Y-4565714D01*
X-7071428Y-4480000D01*
X-7100000Y-4394285D01*
X-7157142Y-4337142D01*
X-7214285Y-4308571D01*
X-7328571Y-4280000D01*
X-7414285Y-4280000D01*
X-7528571Y-4308571D01*
X-7585714Y-4337142D01*
X-7642857Y-4394285D01*
X-7671428Y-4480000D01*
X-7671428Y-4537142D01*
X-7642857Y-4622857D01*
X-7614285Y-4651428D01*
X-7414285Y-4651428D01*
X-7414285Y-4537142D01*
X-7671428Y-4908571D02*
X-7071428Y-4908571D01*
X-7671428Y-5251428D01*
X-7071428Y-5251428D01*
X-7671428Y-5537142D02*
X-7071428Y-5537142D01*
X-7071428Y-5680000D01*
X-7100000Y-5765714D01*
X-7157142Y-5822857D01*
X-7214285Y-5851428D01*
X-7328571Y-5880000D01*
X-7414285Y-5880000D01*
X-7528571Y-5851428D01*
X-7585714Y-5822857D01*
X-7642857Y-5765714D01*
X-7671428Y-5680000D01*
X-7671428Y-5537142D01*
X7671428Y-18737142D02*
X7071428Y-18737142D01*
X7071428Y-18508571D01*
X7100000Y-18451428D01*
X7128571Y-18422857D01*
X7185714Y-18394285D01*
X7271428Y-18394285D01*
X7328571Y-18422857D01*
X7357142Y-18451428D01*
X7385714Y-18508571D01*
X7385714Y-18737142D01*
X7071428Y-18194285D02*
X7071428Y-17822857D01*
X7300000Y-18022857D01*
X7300000Y-17937142D01*
X7328571Y-17880000D01*
X7357142Y-17851428D01*
X7414285Y-17822857D01*
X7557142Y-17822857D01*
X7614285Y-17851428D01*
X7642857Y-17880000D01*
X7671428Y-17937142D01*
X7671428Y-18108571D01*
X7642857Y-18165714D01*
X7614285Y-18194285D01*
X7728571Y-17708571D02*
X7728571Y-17251428D01*
X7071428Y-16851428D02*
X7071428Y-16965714D01*
X7100000Y-17022857D01*
X7128571Y-17051428D01*
X7214285Y-17108571D01*
X7328571Y-17137142D01*
X7557142Y-17137142D01*
X7614285Y-17108571D01*
X7642857Y-17080000D01*
X7671428Y-17022857D01*
X7671428Y-16908571D01*
X7642857Y-16851428D01*
X7614285Y-16822857D01*
X7557142Y-16794285D01*
X7414285Y-16794285D01*
X7357142Y-16822857D01*
X7328571Y-16851428D01*
X7300000Y-16908571D01*
X7300000Y-17022857D01*
X7328571Y-17080000D01*
X7357142Y-17108571D01*
X7414285Y-17137142D01*
X-7071428Y-6862857D02*
X-7071428Y-7205714D01*
X-7671428Y-7034285D02*
X-7071428Y-7034285D01*
X-7071428Y-7348571D02*
X-7671428Y-7748571D01*
X-7071428Y-7748571D02*
X-7671428Y-7348571D01*
X-7671428Y-7977142D02*
X-7071428Y-7977142D01*
X-7071428Y-8120000D01*
X-7100000Y-8205714D01*
X-7157142Y-8262857D01*
X-7214285Y-8291428D01*
X-7328571Y-8320000D01*
X-7414285Y-8320000D01*
X-7528571Y-8291428D01*
X-7585714Y-8262857D01*
X-7642857Y-8205714D01*
X-7671428Y-8120000D01*
X-7671428Y-7977142D01*
X7671428Y-13657142D02*
X7071428Y-13657142D01*
X7071428Y-13428571D01*
X7100000Y-13371428D01*
X7128571Y-13342857D01*
X7185714Y-13314285D01*
X7271428Y-13314285D01*
X7328571Y-13342857D01*
X7357142Y-13371428D01*
X7385714Y-13428571D01*
X7385714Y-13657142D01*
X7671428Y-12742857D02*
X7671428Y-13085714D01*
X7671428Y-12914285D02*
X7071428Y-12914285D01*
X7157142Y-12971428D01*
X7214285Y-13028571D01*
X7242857Y-13085714D01*
X7728571Y-12628571D02*
X7728571Y-12171428D01*
X7071428Y-12085714D02*
X7071428Y-11685714D01*
X7671428Y-11942857D01*
D11*
X-5957142Y-17828571D02*
X-5623809Y-17828571D01*
X-5480952Y-18352380D02*
X-5957142Y-18352380D01*
X-5957142Y-17352380D01*
X-5480952Y-17352380D01*
X-4719047Y-17828571D02*
X-4576190Y-17876190D01*
X-4528571Y-17923809D01*
X-4480952Y-18019047D01*
X-4480952Y-18161904D01*
X-4528571Y-18257142D01*
X-4576190Y-18304761D01*
X-4671428Y-18352380D01*
X-5052380Y-18352380D01*
X-5052380Y-17352380D01*
X-4719047Y-17352380D01*
X-4623809Y-17400000D01*
X-4576190Y-17447619D01*
X-4528571Y-17542857D01*
X-4528571Y-17638095D01*
X-4576190Y-17733333D01*
X-4623809Y-17780952D01*
X-4719047Y-17828571D01*
X-5052380Y-17828571D01*
X-4052380Y-17971428D02*
X-3290476Y-17971428D01*
X-2480952Y-17828571D02*
X-2338095Y-17876190D01*
X-2290476Y-17923809D01*
X-2242857Y-18019047D01*
X-2242857Y-18161904D01*
X-2290476Y-18257142D01*
X-2338095Y-18304761D01*
X-2433333Y-18352380D01*
X-2814285Y-18352380D01*
X-2814285Y-17352380D01*
X-2480952Y-17352380D01*
X-2385714Y-17400000D01*
X-2338095Y-17447619D01*
X-2290476Y-17542857D01*
X-2290476Y-17638095D01*
X-2338095Y-17733333D01*
X-2385714Y-17780952D01*
X-2480952Y-17828571D01*
X-2814285Y-17828571D01*
X-1814285Y-18352380D02*
X-1814285Y-17352380D01*
X-1480952Y-18066666D01*
X-1147619Y-17352380D01*
X-1147619Y-18352380D01*
X-766666Y-17352380D02*
X-100000Y-17352380D01*
X-528571Y-18352380D01*
X804761Y-18352380D02*
X233333Y-18352380D01*
X519047Y-18352380D02*
X519047Y-17352380D01*
X423809Y-17495238D01*
X328571Y-17590476D01*
X233333Y-17638095D01*
X1852380Y-17352380D02*
X2185714Y-18352380D01*
X2519047Y-17352380D01*
X3376190Y-18352380D02*
X2804761Y-18352380D01*
X3090476Y-18352380D02*
X3090476Y-17352380D01*
X2995238Y-17495238D01*
X2900000Y-17590476D01*
X2804761Y-17638095D01*
X3804761Y-18257142D02*
X3852380Y-18304761D01*
X3804761Y-18352380D01*
X3757142Y-18304761D01*
X3804761Y-18257142D01*
X3804761Y-18352380D01*
X4471428Y-17352380D02*
X4566666Y-17352380D01*
X4661904Y-17400000D01*
X4709523Y-17447619D01*
X4757142Y-17542857D01*
X4804761Y-17733333D01*
X4804761Y-17971428D01*
X4757142Y-18161904D01*
X4709523Y-18257142D01*
X4661904Y-18304761D01*
X4566666Y-18352380D01*
X4471428Y-18352380D01*
X4376190Y-18304761D01*
X4328571Y-18257142D01*
X4280952Y-18161904D01*
X4233333Y-17971428D01*
X4233333Y-17733333D01*
X4280952Y-17542857D01*
X4328571Y-17447619D01*
X4376190Y-17400000D01*
X4471428Y-17352380D01*
D10*
X-7671428Y-14282857D02*
X-7071428Y-14282857D01*
X-7071428Y-14511428D01*
X-7100000Y-14568571D01*
X-7128571Y-14597142D01*
X-7185714Y-14625714D01*
X-7271428Y-14625714D01*
X-7328571Y-14597142D01*
X-7357142Y-14568571D01*
X-7385714Y-14511428D01*
X-7385714Y-14282857D01*
X-7128571Y-14854285D02*
X-7100000Y-14882857D01*
X-7071428Y-14940000D01*
X-7071428Y-15082857D01*
X-7100000Y-15140000D01*
X-7128571Y-15168571D01*
X-7185714Y-15197142D01*
X-7242857Y-15197142D01*
X-7328571Y-15168571D01*
X-7671428Y-14825714D01*
X-7671428Y-15197142D01*
X-7728571Y-15311428D02*
X-7728571Y-15768571D01*
X-7071428Y-16025714D02*
X-7071428Y-16082857D01*
X-7100000Y-16140000D01*
X-7128571Y-16168571D01*
X-7185714Y-16197142D01*
X-7300000Y-16225714D01*
X-7442857Y-16225714D01*
X-7557142Y-16197142D01*
X-7614285Y-16168571D01*
X-7642857Y-16140000D01*
X-7671428Y-16082857D01*
X-7671428Y-16025714D01*
X-7642857Y-15968571D01*
X-7614285Y-15940000D01*
X-7557142Y-15911428D01*
X-7442857Y-15882857D01*
X-7300000Y-15882857D01*
X-7185714Y-15911428D01*
X-7128571Y-15940000D01*
X-7100000Y-15968571D01*
X-7071428Y-16025714D01*
X-7671428Y-12371428D02*
X-7385714Y-12171428D01*
X-7671428Y-12028571D02*
X-7071428Y-12028571D01*
X-7071428Y-12257142D01*
X-7100000Y-12314285D01*
X-7128571Y-12342857D01*
X-7185714Y-12371428D01*
X-7271428Y-12371428D01*
X-7328571Y-12342857D01*
X-7357142Y-12314285D01*
X-7385714Y-12257142D01*
X-7385714Y-12028571D01*
X-7642857Y-12600000D02*
X-7671428Y-12685714D01*
X-7671428Y-12828571D01*
X-7642857Y-12885714D01*
X-7614285Y-12914285D01*
X-7557142Y-12942857D01*
X-7500000Y-12942857D01*
X-7442857Y-12914285D01*
X-7414285Y-12885714D01*
X-7385714Y-12828571D01*
X-7357142Y-12714285D01*
X-7328571Y-12657142D01*
X-7300000Y-12628571D01*
X-7242857Y-12600000D01*
X-7185714Y-12600000D01*
X-7128571Y-12628571D01*
X-7100000Y-12657142D01*
X-7071428Y-12714285D01*
X-7071428Y-12857142D01*
X-7100000Y-12942857D01*
X-7071428Y-13114285D02*
X-7071428Y-13457142D01*
X-7671428Y-13285714D02*
X-7071428Y-13285714D01*
D11*
X8556666Y2647619D02*
X8556666Y1933333D01*
X8509047Y1790476D01*
X8413809Y1695238D01*
X8270952Y1647619D01*
X8175714Y1647619D01*
X8937619Y2647619D02*
X9556666Y2647619D01*
X9223333Y2266666D01*
X9366190Y2266666D01*
X9461428Y2219047D01*
X9509047Y2171428D01*
X9556666Y2076190D01*
X9556666Y1838095D01*
X9509047Y1742857D01*
X9461428Y1695238D01*
X9366190Y1647619D01*
X9080476Y1647619D01*
X8985238Y1695238D01*
X8937619Y1742857D01*
X561904Y-21452380D02*
X561904Y-20452380D01*
X799999Y-20452380D01*
X942857Y-20500000D01*
X1038095Y-20595238D01*
X1085714Y-20690476D01*
X1133333Y-20880952D01*
X1133333Y-21023809D01*
X1085714Y-21214285D01*
X1038095Y-21309523D01*
X942857Y-21404761D01*
X799999Y-21452380D01*
X561904Y-21452380D01*
X2085714Y-21452380D02*
X1514285Y-21452380D01*
X1799999Y-21452380D02*
X1799999Y-20452380D01*
X1704761Y-20595238D01*
X1609523Y-20690476D01*
X1514285Y-20738095D01*
X-5733333Y-22352380D02*
X-5733333Y-23066666D01*
X-5780952Y-23209523D01*
X-5876190Y-23304761D01*
X-6019047Y-23352380D01*
X-6114285Y-23352380D01*
X-4733333Y-23352380D02*
X-5304761Y-23352380D01*
X-5019047Y-23352380D02*
X-5019047Y-22352380D01*
X-5114285Y-22495238D01*
X-5209523Y-22590476D01*
X-5304761Y-22638095D01*
X1833333Y-7857142D02*
X1785714Y-7904761D01*
X1642857Y-7952380D01*
X1547619Y-7952380D01*
X1404761Y-7904761D01*
X1309523Y-7809523D01*
X1261904Y-7714285D01*
X1214285Y-7523809D01*
X1214285Y-7380952D01*
X1261904Y-7190476D01*
X1309523Y-7095238D01*
X1404761Y-7000000D01*
X1547619Y-6952380D01*
X1642857Y-6952380D01*
X1785714Y-7000000D01*
X1833333Y-7047619D01*
X2214285Y-7047619D02*
X2261904Y-7000000D01*
X2357142Y-6952380D01*
X2595238Y-6952380D01*
X2690476Y-7000000D01*
X2738095Y-7047619D01*
X2785714Y-7142857D01*
X2785714Y-7238095D01*
X2738095Y-7380952D01*
X2166666Y-7952380D01*
X2785714Y-7952380D01*
X1833333Y-11152380D02*
X1500000Y-10676190D01*
X1261904Y-11152380D02*
X1261904Y-10152380D01*
X1642857Y-10152380D01*
X1738095Y-10200000D01*
X1785714Y-10247619D01*
X1833333Y-10342857D01*
X1833333Y-10485714D01*
X1785714Y-10580952D01*
X1738095Y-10628571D01*
X1642857Y-10676190D01*
X1261904Y-10676190D01*
X2214285Y-10247619D02*
X2261904Y-10200000D01*
X2357142Y-10152380D01*
X2595238Y-10152380D01*
X2690476Y-10200000D01*
X2738095Y-10247619D01*
X2785714Y-10342857D01*
X2785714Y-10438095D01*
X2738095Y-10580952D01*
X2166666Y-11152380D01*
X2785714Y-11152380D01*
X1833333Y-9457142D02*
X1785714Y-9504761D01*
X1642857Y-9552380D01*
X1547619Y-9552380D01*
X1404761Y-9504761D01*
X1309523Y-9409523D01*
X1261904Y-9314285D01*
X1214285Y-9123809D01*
X1214285Y-8980952D01*
X1261904Y-8790476D01*
X1309523Y-8695238D01*
X1404761Y-8600000D01*
X1547619Y-8552380D01*
X1642857Y-8552380D01*
X1785714Y-8600000D01*
X1833333Y-8647619D01*
X2785714Y-9552380D02*
X2214285Y-9552380D01*
X2500000Y-9552380D02*
X2500000Y-8552380D01*
X2404761Y-8695238D01*
X2309523Y-8790476D01*
X2214285Y-8838095D01*
X-1633333Y-20928571D02*
X-1966666Y-20928571D01*
X-1966666Y-21452380D02*
X-1966666Y-20452380D01*
X-1490476Y-20452380D01*
X-585714Y-21452380D02*
X-1157142Y-21452380D01*
X-871428Y-21452380D02*
X-871428Y-20452380D01*
X-966666Y-20595238D01*
X-1061904Y-20690476D01*
X-1157142Y-20738095D01*
X1833333Y-6257142D02*
X1785714Y-6304761D01*
X1642857Y-6352380D01*
X1547619Y-6352380D01*
X1404761Y-6304761D01*
X1309523Y-6209523D01*
X1261904Y-6114285D01*
X1214285Y-5923809D01*
X1214285Y-5780952D01*
X1261904Y-5590476D01*
X1309523Y-5495238D01*
X1404761Y-5400000D01*
X1547619Y-5352380D01*
X1642857Y-5352380D01*
X1785714Y-5400000D01*
X1833333Y-5447619D01*
X2166666Y-5352380D02*
X2785714Y-5352380D01*
X2452380Y-5733333D01*
X2595238Y-5733333D01*
X2690476Y-5780952D01*
X2738095Y-5828571D01*
X2785714Y-5923809D01*
X2785714Y-6161904D01*
X2738095Y-6257142D01*
X2690476Y-6304761D01*
X2595238Y-6352380D01*
X2309523Y-6352380D01*
X2214285Y-6304761D01*
X2166666Y-6257142D01*
X2238095Y-12652380D02*
X2238095Y-13461904D01*
X2285714Y-13557142D01*
X2333333Y-13604761D01*
X2428571Y-13652380D01*
X2619047Y-13652380D01*
X2714285Y-13604761D01*
X2761904Y-13557142D01*
X2809523Y-13461904D01*
X2809523Y-12652380D01*
X3190476Y-12652380D02*
X3809523Y-12652380D01*
X3476190Y-13033333D01*
X3619047Y-13033333D01*
X3714285Y-13080952D01*
X3761904Y-13128571D01*
X3809523Y-13223809D01*
X3809523Y-13461904D01*
X3761904Y-13557142D01*
X3714285Y-13604761D01*
X3619047Y-13652380D01*
X3333333Y-13652380D01*
X3238095Y-13604761D01*
X3190476Y-13557142D01*
X1833333Y-4657142D02*
X1785714Y-4704761D01*
X1642857Y-4752380D01*
X1547619Y-4752380D01*
X1404761Y-4704761D01*
X1309523Y-4609523D01*
X1261904Y-4514285D01*
X1214285Y-4323809D01*
X1214285Y-4180952D01*
X1261904Y-3990476D01*
X1309523Y-3895238D01*
X1404761Y-3800000D01*
X1547619Y-3752380D01*
X1642857Y-3752380D01*
X1785714Y-3800000D01*
X1833333Y-3847619D01*
X2690476Y-4085714D02*
X2690476Y-4752380D01*
X2452380Y-3704761D02*
X2214285Y-4419047D01*
X2833333Y-4419047D01*
X-761904Y-2252380D02*
X-761904Y-3061904D01*
X-714285Y-3157142D01*
X-666666Y-3204761D01*
X-571428Y-3252380D01*
X-380952Y-3252380D01*
X-285714Y-3204761D01*
X-238095Y-3157142D01*
X-190476Y-3061904D01*
X-190476Y-2252380D01*
X809523Y-3252380D02*
X238095Y-3252380D01*
X523809Y-3252380D02*
X523809Y-2252380D01*
X428571Y-2395238D01*
X333333Y-2490476D01*
X238095Y-2538095D01*
X1133333Y-19852380D02*
X799999Y-19376190D01*
X561904Y-19852380D02*
X561904Y-18852380D01*
X942857Y-18852380D01*
X1038095Y-18900000D01*
X1085714Y-18947619D01*
X1133333Y-19042857D01*
X1133333Y-19185714D01*
X1085714Y-19280952D01*
X1038095Y-19328571D01*
X942857Y-19376190D01*
X561904Y-19376190D01*
X2085714Y-19852380D02*
X1514285Y-19852380D01*
X1799999Y-19852380D02*
X1799999Y-18852380D01*
X1704761Y-18995238D01*
X1609523Y-19090476D01*
X1514285Y-19138095D01*
X-9223333Y2647619D02*
X-9223333Y1933333D01*
X-9270952Y1790476D01*
X-9366190Y1695238D01*
X-9509047Y1647619D01*
X-9604285Y1647619D01*
X-8794761Y2552380D02*
X-8747142Y2600000D01*
X-8651904Y2647619D01*
X-8413809Y2647619D01*
X-8318571Y2600000D01*
X-8270952Y2552380D01*
X-8223333Y2457142D01*
X-8223333Y2361904D01*
X-8270952Y2219047D01*
X-8842380Y1647619D01*
X-8223333Y1647619D01*
X-4261904Y-13552380D02*
X-4261904Y-14361904D01*
X-4214285Y-14457142D01*
X-4166666Y-14504761D01*
X-4071428Y-14552380D01*
X-3880952Y-14552380D01*
X-3785714Y-14504761D01*
X-3738095Y-14457142D01*
X-3690476Y-14361904D01*
X-3690476Y-13552380D01*
X-3261904Y-13647619D02*
X-3214285Y-13600000D01*
X-3119047Y-13552380D01*
X-2880952Y-13552380D01*
X-2785714Y-13600000D01*
X-2738095Y-13647619D01*
X-2690476Y-13742857D01*
X-2690476Y-13838095D01*
X-2738095Y-13980952D01*
X-3309523Y-14552380D01*
X-2690476Y-14552380D01*
X-1466666Y-19852380D02*
X-1942857Y-19852380D01*
X-1942857Y-18852380D01*
X-609523Y-19852380D02*
X-1180952Y-19852380D01*
X-895238Y-19852380D02*
X-895238Y-18852380D01*
X-990476Y-18995238D01*
X-1085714Y-19090476D01*
X-1180952Y-19138095D01*
X-5533333Y-3304761D02*
X-5390476Y-3352380D01*
X-5152380Y-3352380D01*
X-5057142Y-3304761D01*
X-5009523Y-3257142D01*
X-4961904Y-3161904D01*
X-4961904Y-3066666D01*
X-5009523Y-2971428D01*
X-5057142Y-2923809D01*
X-5152380Y-2876190D01*
X-5342857Y-2828571D01*
X-5438095Y-2780952D01*
X-5485714Y-2733333D01*
X-5533333Y-2638095D01*
X-5533333Y-2542857D01*
X-5485714Y-2447619D01*
X-5438095Y-2400000D01*
X-5342857Y-2352380D01*
X-5104761Y-2352380D01*
X-4961904Y-2400000D01*
X-4628571Y-2352380D02*
X-4390476Y-3352380D01*
X-4200000Y-2638095D01*
X-4009523Y-3352380D01*
X-3771428Y-2352380D01*
X-2866666Y-3352380D02*
X-3438095Y-3352380D01*
X-3152380Y-3352380D02*
X-3152380Y-2352380D01*
X-3247619Y-2495238D01*
X-3342857Y-2590476D01*
X-3438095Y-2638095D01*
D10*
X4100000Y-21200000D02*
X3900000Y-21000000D01*
X3900000Y-21000000D02*
X4100000Y-20800000D01*
X4100000Y-20800000D02*
X4100000Y-21200000D01*
X2300000Y-21800000D02*
X5700000Y-21800000D01*
X2300000Y-20200000D02*
X5700000Y-20200000D01*
X2300000Y-20200000D02*
X2300000Y-21800000D01*
X5700000Y-20200000D02*
X5700000Y-21800000D01*
X3900000Y-23700000D02*
X3900000Y-23000000D01*
X-3900000Y-27300000D02*
X-3900000Y-29600000D01*
X3900000Y-23000000D02*
X2100000Y-23000000D01*
X-3900000Y-23700000D02*
X-3900000Y-23000000D01*
X-3900000Y-23000000D02*
X-2100000Y-23000000D01*
X3900000Y-27300000D02*
X3900000Y-29600000D01*
X3000000Y-6700000D02*
X6400000Y-6700000D01*
X4600000Y-7500000D02*
X4800000Y-7300000D01*
X3000000Y-6700000D02*
X3000000Y-8300000D01*
X4800000Y-7700000D02*
X4600000Y-7500000D01*
X4800000Y-7300000D02*
X4800000Y-7700000D01*
X6400000Y-6700000D02*
X6400000Y-8300000D01*
X3000000Y-8300000D02*
X6400000Y-8300000D01*
X4800000Y-10500000D02*
X4800000Y-10900000D01*
X6400000Y-9900000D02*
X6400000Y-11500000D01*
X3000000Y-11500000D02*
X6400000Y-11500000D01*
X4800000Y-10900000D02*
X4600000Y-10700000D01*
X3000000Y-9900000D02*
X6400000Y-9900000D01*
X4600000Y-10700000D02*
X4800000Y-10500000D01*
X3000000Y-9900000D02*
X3000000Y-11500000D01*
X4600000Y-9100000D02*
X4800000Y-8900000D01*
X6400000Y-8300000D02*
X6400000Y-9900000D01*
X4800000Y-8900000D02*
X4800000Y-9300000D01*
X4800000Y-9300000D02*
X4600000Y-9100000D01*
X3000000Y-9900000D02*
X6400000Y-9900000D01*
X3000000Y-8300000D02*
X3000000Y-9900000D01*
X3000000Y-8300000D02*
X6400000Y-8300000D01*
X-2300000Y-20200000D02*
X-2300000Y-21800000D01*
X-5700000Y-20200000D02*
X-5700000Y-21800000D01*
X-3900000Y-21200000D02*
X-4100000Y-21000000D01*
X-5700000Y-20200000D02*
X-2300000Y-20200000D01*
X-3900000Y-20800000D02*
X-3900000Y-21200000D01*
X-5700000Y-21800000D02*
X-2300000Y-21800000D01*
X-4100000Y-21000000D02*
X-3900000Y-20800000D01*
X3000000Y-6700000D02*
X6400000Y-6700000D01*
X4600000Y-5900000D02*
X4800000Y-5700000D01*
X4800000Y-6100000D02*
X4600000Y-5900000D01*
X3000000Y-5100000D02*
X3000000Y-6700000D01*
X3000000Y-5100000D02*
X6400000Y-5100000D01*
X4800000Y-5700000D02*
X4800000Y-6100000D01*
X6400000Y-5100000D02*
X6400000Y-6700000D01*
D12*
X6200000Y-16750000D02*
G75*
G03*
X6200000Y-16750000I-100000J0D01*
G01*
D10*
X4600000Y-4300000D02*
X4800000Y-4100000D01*
X6400000Y-3500000D02*
X6400000Y-5100000D01*
X4800000Y-4100000D02*
X4800000Y-4500000D01*
X3000000Y-3500000D02*
X6400000Y-3500000D01*
X4800000Y-4500000D02*
X4600000Y-4300000D01*
X3000000Y-3500000D02*
X3000000Y-5100000D01*
X3000000Y-5100000D02*
X6400000Y-5100000D01*
X-4600000Y700000D02*
X-4600000Y-600000D01*
X4600000Y-600000D02*
X3700000Y-600000D01*
X4600000Y700000D02*
X4600000Y-600000D01*
X-4600000Y-600000D02*
X-3700000Y-600000D01*
X5700000Y-18600000D02*
X5700000Y-20200000D01*
X4100000Y-19600000D02*
X3900000Y-19400000D01*
X3900000Y-19400000D02*
X4100000Y-19200000D01*
X2300000Y-18600000D02*
X5700000Y-18600000D01*
X4100000Y-19200000D02*
X4100000Y-19600000D01*
X2300000Y-20200000D02*
X5700000Y-20200000D01*
X2300000Y-18600000D02*
X2300000Y-20200000D01*
X-4300000Y-16700000D02*
X-4300000Y-16600000D01*
X-2700000Y-15300000D02*
X-2700000Y-15400000D01*
X-2700000Y-16700000D02*
X-3200000Y-16700000D01*
X-3800000Y-16700000D02*
X-4300000Y-16700000D01*
X-4300000Y-15300000D02*
X-3800000Y-15300000D01*
X-4300000Y-15400000D02*
X-4300000Y-15300000D01*
X-2700000Y-16500000D02*
X-2700000Y-16700000D01*
X-3200000Y-15300000D02*
X-2700000Y-15300000D01*
X-4100000Y-19600000D02*
X-4100000Y-19200000D01*
X-2300000Y-20200000D02*
X-5700000Y-20200000D01*
X-3900000Y-19400000D02*
X-4100000Y-19600000D01*
X-4100000Y-19200000D02*
X-3900000Y-19400000D01*
X-5700000Y-20200000D02*
X-5700000Y-18600000D01*
X-2300000Y-20200000D02*
X-2300000Y-18600000D01*
X-2300000Y-18600000D02*
X-5700000Y-18600000D01*
X-5950000Y-3600000D02*
X-5950000Y-4700000D01*
X-2450000Y-12600000D02*
X-2450000Y-11500000D01*
X-2450000Y-6500000D02*
X-2450000Y-7200000D01*
X-5950000Y-3600000D02*
X-2450000Y-3600000D01*
X-5950000Y-7200000D02*
X-5950000Y-6500000D01*
X-2450000Y-9000000D02*
X-2450000Y-9700000D01*
X-5950000Y-9700000D02*
X-5950000Y-9000000D01*
X-5950000Y-12600000D02*
X-2450000Y-12600000D01*
X-2450000Y-3600000D02*
X-2450000Y-4700000D01*
X-5950000Y-12600000D02*
X-5950000Y-11500000D01*
M02*
